<svg width="49" height="40" viewBox="0 0 49 40" fill="none" xmlns="http://www.w3.org/2000/svg">
<path d="M27.8571 6.1875H3L6.10714 19.5938H24.75M6.10714 23.7188H23.7143L28.8929 2.0625H32" stroke="#0E262D" stroke-width="2" stroke-linecap="round" stroke-linejoin="round"/>
<path d="M8.17857 29.9062C7.03455 29.9062 6.10714 28.9828 6.10714 27.8438C6.10714 26.7047 7.03455 25.7812 8.17857 25.7812C9.32259 25.7812 10.25 26.7047 10.25 27.8438C10.25 28.9828 9.32259 29.9062 8.17857 29.9062Z" stroke="#0E262D" stroke-width="2" stroke-linecap="round" stroke-linejoin="round"/>
<path d="M21.6428 29.9062C20.4988 29.9062 19.5714 28.9828 19.5714 27.8438C19.5714 26.7047 20.4988 25.7812 21.6428 25.7812C22.7868 25.7812 23.7142 26.7047 23.7142 27.8438C23.7142 28.9828 22.7868 29.9062 21.6428 29.9062Z" stroke="#0E262D" stroke-width="2" stroke-linecap="round" stroke-linejoin="round"/>
<rect x="14" y="23" width="35" height="17" rx="8.5" fill="#991B1E"/>
<path d="M28.326 27.2V37H26.058V29.02H24.098V27.2H28.326ZM34.2284 37.168C33.4164 37.168 32.6931 36.9673 32.0584 36.566C31.4238 36.1647 30.9244 35.586 30.5604 34.83C30.2058 34.0647 30.0284 33.1547 30.0284 32.1C30.0284 31.0453 30.2058 30.14 30.5604 29.384C30.9244 28.6187 31.4238 28.0353 32.0584 27.634C32.6931 27.2327 33.4164 27.032 34.2284 27.032C35.0404 27.032 35.7638 27.2327 36.3984 27.634C37.0331 28.0353 37.5278 28.6187 37.8824 29.384C38.2464 30.14 38.4284 31.0453 38.4284 32.1C38.4284 33.1547 38.2464 34.0647 37.8824 34.83C37.5278 35.586 37.0331 36.1647 36.3984 36.566C35.7638 36.9673 35.0404 37.168 34.2284 37.168ZM34.2284 35.25C34.8258 35.25 35.2924 34.9933 35.6284 34.48C35.9738 33.9667 36.1464 33.1733 36.1464 32.1C36.1464 31.0267 35.9738 30.2333 35.6284 29.72C35.2924 29.2067 34.8258 28.95 34.2284 28.95C33.6404 28.95 33.1738 29.2067 32.8284 29.72C32.4924 30.2333 32.3244 31.0267 32.3244 32.1C32.3244 33.1733 32.4924 33.9667 32.8284 34.48C33.1738 34.9933 33.6404 35.25 34.2284 35.25Z" fill="#F5F5F5"/>
</svg>
