<svg width="12" height="13" viewBox="0 0 12 13" fill="none" xmlns="http://www.w3.org/2000/svg">
<path d="M11.6569 10.7426L7.41421 6.5L11.6569 2.25735C11.8444 2.06982 11.9497 1.81546 11.9497 1.55025C11.9497 1.28503 11.8444 1.03068 11.6569 0.843141C11.4693 0.655605 11.215 0.550248 10.9497 0.550248C10.6845 0.550248 10.4302 0.655605 10.2426 0.843141L6 5.08578L1.75736 0.843141C1.56982 0.655605 1.31547 0.550248 1.05025 0.550248C0.785036 0.550248 0.530682 0.655605 0.343146 0.843141C0.155609 1.03068 0.0502528 1.28503 0.0502529 1.55025C0.050253 1.81546 0.155609 2.06982 0.343146 2.25735L4.58579 6.5L0.343146 10.7426C0.155609 10.9302 0.0502522 11.1845 0.0502522 11.4497C0.0502522 11.715 0.15561 11.9693 0.343146 12.1568C0.530682 12.3444 0.785036 12.4497 1.05025 12.4497C1.31547 12.4497 1.56982 12.3444 1.75736 12.1568L6 7.91421L10.2426 12.1568C10.4302 12.3444 10.6845 12.4497 10.9497 12.4497C11.215 12.4497 11.4693 12.3444 11.6569 12.1568C11.8444 11.9693 11.9497 11.715 11.9497 11.4497C11.9497 11.1845 11.8444 10.9302 11.6569 10.7426Z" fill="#CCCCCC"/>
</svg>
