<svg width="130" height="130" viewBox="0 0 130 130" fill="none" xmlns="http://www.w3.org/2000/svg">
<path d="M82.4873 79.7872C80.6627 79.7872 78.9846 79.1266 77.6816 78.0358C76.0459 76.6652 75.0002 74.6129 75.0002 72.3301V65.6112C75.0002 61.5088 78.3685 58.1541 82.4873 58.1541C86.6061 58.1541 89.9743 61.5088 89.9743 65.6112V72.3301C89.9743 76.4325 86.6061 79.7872 82.4873 79.7872Z" stroke="#991B1E" stroke-width="2" stroke-linecap="round" stroke-linejoin="round"/>
<path d="M86.4668 79.249L97.9783 86.6685C99.3803 87.5713 100.225 89.1205 100.225 90.7826V96.1545C100.225 97.8401 99.3544 99.4082 97.9216 100.306L95.625 101.743C94.8414 102.234 93.935 102.493 93.0074 102.493H72.7933C71.7713 102.493 70.7728 102.175 69.9396 101.585L66.274 98.9874C64.9758 98.0682 64.2063 96.58 64.2063 94.9931V91.4315C64.2063 89.7812 65.0395 88.2413 66.4251 87.3362L78.7768 79.249" stroke="#991B1E" stroke-width="2" stroke-linecap="round" stroke-linejoin="round"/>
<path d="M28.3242 40.957V38.9423C28.3242 35.0844 31.4659 31.9553 35.3392 31.9553C39.2126 31.9553 42.3542 35.0844 42.3542 38.9423V40.689C42.3542 44.5469 39.2126 47.6759 35.3392 47.6759H34.5296C30.6563 47.6759 27.5146 50.805 27.5146 54.6629V57.752H42.8923" stroke="#991B1E" stroke-width="2" stroke-linecap="round" stroke-linejoin="round"/>
<path d="M64.6123 31.9553V59.2284" stroke="#991B1E" stroke-width="2" stroke-linecap="round" stroke-linejoin="round"/>
<path d="M50.901 30.8223V40.2401C50.901 43.8252 53.8184 46.7333 57.4203 46.7333" stroke="#991B1E" stroke-width="2" stroke-linecap="round" stroke-linejoin="round"/>
<path d="M77.2426 32.9287C79.1781 37.0851 80.2591 41.7165 80.2591 46.6017C80.2591 64.5604 65.6438 79.1173 47.613 79.1173C41.9364 79.1173 36.5996 77.6738 31.9497 75.1372L12 80.4597L17.6696 59.5741" stroke="#991B1E" stroke-width="2" stroke-linecap="round" stroke-linejoin="round"/>
<path d="M60.4322 23.8918L70.6997 23.6073C64.7917 17.723 56.6296 14.0837 47.6154 14.0837C29.5846 14.0837 14.9694 28.6407 14.9694 46.5993C14.9694 51.2119 15.9324 55.5987 17.672 59.5717C19.2935 63.2768 21.5854 66.6245 24.399 69.4574" stroke="#991B1E" stroke-width="2" stroke-linecap="round" stroke-linejoin="round"/>
<path d="M49.7113 88.9089C52.657 103.851 65.8797 115.124 81.7437 115.124C87.4203 115.124 92.7571 113.681 97.407 111.144L117.357 116.466L111.687 95.5808" stroke="#991B1E" stroke-width="2" stroke-linecap="round" stroke-linejoin="round"/>
<path d="M88.3245 50.7534C103.199 53.7861 114.39 66.8949 114.39 82.6084C114.39 87.2209 113.427 91.6077 111.687 95.5808C110.066 99.2859 107.774 102.634 104.96 105.466" stroke="#991B1E" stroke-width="2" stroke-linecap="round" stroke-linejoin="round"/>
<path d="M70.5604 13L70.6999 23.6074" stroke="#991B1E" stroke-width="2" stroke-linecap="round" stroke-linejoin="round"/>
</svg>
