<svg width="130" height="130" viewBox="0 0 130 130" fill="none" xmlns="http://www.w3.org/2000/svg">
<path d="M56.1663 26.2725H76.1467C79.2742 26.2725 81.8092 28.7973 81.8092 31.9123V86.3221" stroke="#991B1E" stroke-width="2" stroke-linecap="round" stroke-linejoin="round"/>
<path d="M52.0474 82.342H80.9806" stroke="#991B1E" stroke-width="2" stroke-linecap="round" stroke-linejoin="round"/>
<path d="M51.7854 93.4009H82.3638" stroke="#991B1E" stroke-width="2" stroke-linecap="round" stroke-linejoin="round"/>
<path d="M82.142 36.8894H95.8792C98.452 36.8894 100.843 38.213 102.203 40.3899L109.218 51.625C110.615 53.8631 112.51 55.7485 114.76 57.1355L122.445 61.8821V90.4128H116.45" stroke="#991B1E" stroke-width="2" stroke-linecap="round" stroke-linejoin="round"/>
<path d="M89.3575 44.8519V58.2333H104.124L95.6266 44.8096C95.6266 44.8096 89.2466 44.8519 89.3575 44.8519Z" stroke="#991B1E" stroke-width="2" stroke-linecap="round" stroke-linejoin="round"/>
<path d="M121.89 65.8645H118.06C116.313 65.8645 114.894 67.2751 114.894 69.0171V74.436C114.894 76.1756 116.311 77.5885 118.06 77.5885H122.445" stroke="#991B1E" stroke-width="2" stroke-linecap="round" stroke-linejoin="round"/>
<path d="M89.8887 66.967H96.9084" stroke="#991B1E" stroke-width="2" stroke-linecap="round" stroke-linejoin="round"/>
<path d="M99.3135 96.4641C101.429 96.4641 103.144 94.7558 103.144 92.6486C103.144 90.5413 101.429 88.833 99.3135 88.833C97.1978 88.833 95.4827 90.5413 95.4827 92.6486C95.4827 94.7558 97.1978 96.4641 99.3135 96.4641Z" stroke="#991B1E" stroke-width="2" stroke-linecap="round" stroke-linejoin="round"/>
<path d="M99.3018 103.223C105.223 103.223 110.023 98.4423 110.023 92.5451C110.023 86.6478 105.223 81.8672 99.3018 81.8672C93.3809 81.8672 88.5811 86.6478 88.5811 92.5451C88.5811 98.4423 93.3809 103.223 99.3018 103.223Z" stroke="#991B1E" stroke-width="2" stroke-linecap="round" stroke-linejoin="round"/>
<path d="M31.8687 96.4641C33.9844 96.4641 35.6995 94.7558 35.6995 92.6486C35.6995 90.5413 33.9844 88.833 31.8687 88.833C29.753 88.833 28.0378 90.5413 28.0378 92.6486C28.0378 94.7558 29.753 96.4641 31.8687 96.4641Z" stroke="#991B1E" stroke-width="2" stroke-linecap="round" stroke-linejoin="round"/>
<path d="M31.8593 103.223C37.7802 103.223 42.58 98.4423 42.58 92.5451C42.58 86.6478 37.7802 81.8672 31.8593 81.8672C25.9384 81.8672 21.1385 86.6478 21.1385 92.5451C21.1385 98.4423 25.9384 103.223 31.8593 103.223Z" stroke="#991B1E" stroke-width="2" stroke-linecap="round" stroke-linejoin="round"/>
<path d="M27.4383 52.8898C38.7261 52.8898 47.8766 43.7758 47.8766 32.5331C47.8766 21.2905 38.7261 12.1765 27.4383 12.1765C16.1505 12.1765 7 21.2905 7 32.5331C7 43.7758 16.1505 52.8898 27.4383 52.8898Z" stroke="#991B1E" stroke-width="2" stroke-linecap="round" stroke-linejoin="round"/>
<path d="M9.7168 56.3362V93.824H12.2187" stroke="#991B1E" stroke-width="2" stroke-linecap="round" stroke-linejoin="round"/>
<path d="M27.4384 12.1767V5.26025" stroke="#991B1E" stroke-width="2" stroke-linecap="round" stroke-linejoin="round"/>
<path d="M22.1488 4H31.9585" stroke="#991B1E" stroke-width="2" stroke-linecap="round" stroke-linejoin="round"/>
<path d="M40.4086 14.4826L42.9861 10.9727" stroke="#991B1E" stroke-width="2" stroke-linecap="round" stroke-linejoin="round"/>
<path d="M40.772 8.37744L45.75 12.0049" stroke="#991B1E" stroke-width="2" stroke-linecap="round" stroke-linejoin="round"/>
<path d="M27.455 21.512V35.5235L34.0569 27.9041" stroke="#991B1E" stroke-width="2" stroke-linecap="round" stroke-linejoin="round"/>
</svg>
