<svg width="130" height="130" viewBox="0 0 130 130" fill="none" xmlns="http://www.w3.org/2000/svg">
<path d="M94.8414 19H34.3691C25.3287 19 18 26.2994 18 35.3036V95.5343C18 104.539 25.3287 111.838 34.3691 111.838H94.8414C103.882 111.838 111.21 104.539 111.21 95.5343V35.3036C111.21 26.2994 103.882 19 94.8414 19Z" stroke="#991B1E" stroke-width="2" stroke-linecap="round" stroke-linejoin="round"/>
<path d="M18.5193 41.9944H110.167" stroke="#991B1E" stroke-width="2" stroke-linecap="round" stroke-linejoin="round"/>
<path d="M30.6515 31.1543H36.2243" stroke="#991B1E" stroke-width="2" stroke-linecap="round" stroke-linejoin="round"/>
<path d="M42.4391 31.1543H48.0142" stroke="#991B1E" stroke-width="2" stroke-linecap="round" stroke-linejoin="round"/>
<path d="M53.7286 72.4199C56.8924 72.4199 59.4572 69.8654 59.4572 66.7142C59.4572 63.5631 56.8924 61.0085 53.7286 61.0085C50.5648 61.0085 48 63.5631 48 66.7142C48 69.8654 50.5648 72.4199 53.7286 72.4199Z" stroke="#991B1E" stroke-width="2" stroke-linecap="round" stroke-linejoin="round"/>
<path d="M75.9466 91.4365C79.1104 91.4365 81.6752 88.882 81.6752 85.7308C81.6752 82.5797 79.1104 80.0251 75.9466 80.0251C72.7828 80.0251 70.218 82.5797 70.218 85.7308C70.218 88.882 72.7828 91.4365 75.9466 91.4365Z" stroke="#991B1E" stroke-width="2" stroke-linecap="round" stroke-linejoin="round"/>
<path d="M79.0387 61.373L50.5917 92.1913" stroke="#991B1E" stroke-width="2" stroke-linecap="round" stroke-linejoin="round"/>
</svg>
