<svg width="130" height="130" viewBox="0 0 130 130" fill="none" xmlns="http://www.w3.org/2000/svg">
<path d="M12 28.8473L27.17 10H102.55L117.878 28.8473L64.5486 84.1457L12 28.8473Z" stroke="#991B1E" stroke-width="2" stroke-linecap="round" stroke-linejoin="round"/>
<path d="M12 28.8474H117.878" stroke="#991B1E" stroke-width="2" stroke-linecap="round" stroke-linejoin="round"/>
<path d="M50.1599 11.0908L44.2165 28.8473L64.5486 84.1457" stroke="#991B1E" stroke-width="2" stroke-linecap="round" stroke-linejoin="round"/>
<path d="M78.9349 11.0908L84.8783 28.8473L64.5486 84.1457" stroke="#991B1E" stroke-width="2" stroke-linecap="round" stroke-linejoin="round"/>
<path d="M90.9775 92.0896H37.336C33.9676 92.0896 31.2369 94.8094 31.2369 98.1644C31.2369 101.519 33.9676 104.239 37.336 104.239H90.9775C94.346 104.239 97.0767 101.519 97.0767 98.1644C97.0767 94.8094 94.346 92.0896 90.9775 92.0896Z" stroke="#991B1E" stroke-width="2" stroke-linecap="round" stroke-linejoin="round"/>
<path d="M88.4283 120.439H41.1362L46.093 104.707H83.4716L88.4283 120.439Z" stroke="#991B1E" stroke-width="2" stroke-linecap="round" stroke-linejoin="round"/>
<path d="M36.3966 92.5572L20.6011 38.9727" stroke="#991B1E" stroke-width="2" stroke-linecap="round" stroke-linejoin="round"/>
<path d="M92.2285 92.7126L107.243 41.4648" stroke="#991B1E" stroke-width="2" stroke-linecap="round" stroke-linejoin="round"/>
</svg>
