<svg width="130" height="130" viewBox="0 0 130 130" fill="none" xmlns="http://www.w3.org/2000/svg">
<path d="M13 48.5853V114.044H27.2754V70.3102H102.882V114.475H117.887V49.3L65.2984 15L13 48.5853Z" stroke="#991B1E" stroke-width="2" stroke-linecap="round" stroke-linejoin="round"/>
<path d="M55.6186 113.741H40.7767V98.9561H48.1386H55.6186V113.741Z" stroke="#991B1E" stroke-width="2" stroke-linecap="round" stroke-linejoin="round"/>
<path d="M48.1386 104.862V98.9561" stroke="#991B1E" stroke-width="2" stroke-linecap="round" stroke-linejoin="round"/>
<path d="M70.385 113.741H55.5407V98.9561H62.9027H70.385V113.741Z" stroke="#991B1E" stroke-width="2" stroke-linecap="round" stroke-linejoin="round"/>
<path d="M62.9026 104.862V98.9561" stroke="#991B1E" stroke-width="2" stroke-linecap="round" stroke-linejoin="round"/>
<path d="M85.2269 113.741H70.385V98.9561H77.747H85.2269V113.741Z" stroke="#991B1E" stroke-width="2" stroke-linecap="round" stroke-linejoin="round"/>
<path d="M77.7469 104.862V98.9561" stroke="#991B1E" stroke-width="2" stroke-linecap="round" stroke-linejoin="round"/>
<path d="M70.385 98.9961H55.5407V84.2112H62.9027H70.385V98.9961Z" stroke="#991B1E" stroke-width="2" stroke-linecap="round" stroke-linejoin="round"/>
<path d="M62.9026 90.1167V84.2112" stroke="#991B1E" stroke-width="2" stroke-linecap="round" stroke-linejoin="round"/>
<path d="M85.2269 98.9961H70.385V84.2112H77.747H85.2269V98.9961Z" stroke="#991B1E" stroke-width="2" stroke-linecap="round" stroke-linejoin="round"/>
<path d="M77.7469 90.1167V84.2112" stroke="#991B1E" stroke-width="2" stroke-linecap="round" stroke-linejoin="round"/>
<path d="M13.2997 54.251H34.9607" stroke="#991B1E" stroke-width="2" stroke-linecap="round" stroke-linejoin="round"/>
<path d="M94.9752 54.251H116.634" stroke="#991B1E" stroke-width="2" stroke-linecap="round" stroke-linejoin="round"/>
<path d="M76.4275 52.7934C77.3787 50.7528 79.7627 49.8289 81.8327 50.6588C82.1325 49.0602 82.1915 47.4498 82.031 45.8723C79.8972 46.5282 77.6006 45.4092 76.824 43.2981C76.0475 41.1869 77.0766 38.8548 79.1301 37.9826C78.2308 36.6755 77.1403 35.4836 75.8752 34.4562C74.8319 36.424 72.4125 37.2515 70.3637 36.3064C68.3149 35.359 67.3873 32.9846 68.2205 30.9228C66.6155 30.6242 64.9986 30.5655 63.4148 30.7253C64.0734 32.8506 62.9498 35.138 60.8302 35.9115C58.7106 36.6849 56.3692 35.6599 55.4935 33.6146C54.1811 34.5103 52.9844 35.5964 51.9529 36.8565C53.9286 37.8956 54.7594 40.3053 53.8105 42.3459C52.8593 44.3865 50.4754 45.3105 48.4053 44.4806C48.1056 46.0792 48.0466 47.6896 48.2071 49.2671C50.3408 48.6112 52.6375 49.7302 53.414 51.8413C54.1906 53.9524 53.1614 56.2846 51.1079 57.1568C52.0072 58.4639 53.0977 59.6558 54.3629 60.6831C55.4062 58.7154 57.8255 57.8879 59.8743 58.833C61.9231 59.7804 62.8507 62.1548 62.0175 64.2166C63.6225 64.5151 65.2394 64.5739 66.8232 64.4141C66.1647 62.2888 67.2882 60.0014 69.4078 59.2279C71.5274 58.4545 73.8689 59.4795 74.7445 61.5248C76.0569 60.6291 77.2536 59.5429 78.2851 58.2828C76.3095 57.2437 75.4786 54.834 76.4275 52.7934ZM62.8979 52.335C60.2567 51.1149 59.1072 47.9929 60.3322 45.3598C61.5572 42.7268 64.6918 41.5842 67.3354 42.8044C69.9766 44.0245 71.1261 47.1465 69.9011 49.7796C68.6761 52.4102 65.5415 53.5551 62.8979 52.335Z" stroke="#991B1E" stroke-width="2" stroke-linecap="round" stroke-linejoin="round"/>
</svg>
