<svg width="130" height="130" viewBox="0 0 130 130" fill="none" xmlns="http://www.w3.org/2000/svg">
<path d="M33.8687 103.752H6V75.9949H19.8222H33.8687V103.752Z" stroke="#991B1E" stroke-width="2" stroke-linecap="round" stroke-linejoin="round"/>
<path d="M19.8222 87.0842V75.9949" stroke="#991B1E" stroke-width="2" stroke-linecap="round" stroke-linejoin="round"/>
<path d="M48.3613 75.9219H20.4926V48.1646H34.3148H48.3613V75.9219Z" stroke="#991B1E" stroke-width="2" stroke-linecap="round" stroke-linejoin="round"/>
<path d="M34.3148 59.2539V48.1646" stroke="#991B1E" stroke-width="2" stroke-linecap="round" stroke-linejoin="round"/>
<path d="M62.1246 103.752H34.2558V75.9949H48.0781H62.1246V103.752Z" stroke="#991B1E" stroke-width="2" stroke-linecap="round" stroke-linejoin="round"/>
<path d="M48.0781 87.0842V75.9949" stroke="#991B1E" stroke-width="2" stroke-linecap="round" stroke-linejoin="round"/>
<path d="M12.1228 38.3447V31.6399C12.1228 28.5249 14.6578 26 17.7853 26H77.068C80.1954 26 82.7305 28.5249 82.7305 31.6399V86.0496" stroke="#991B1E" stroke-width="2" stroke-linecap="round" stroke-linejoin="round"/>
<path d="M71.1199 82.0671H82.7305" stroke="#991B1E" stroke-width="2" stroke-linecap="round" stroke-linejoin="round"/>
<path d="M71.0136 93.1257H83.2851" stroke="#991B1E" stroke-width="2" stroke-linecap="round" stroke-linejoin="round"/>
<path d="M83.0632 36.6167H96.8005C99.3733 36.6167 101.764 37.9403 103.124 40.1172L110.139 51.3523C111.536 53.5904 113.432 55.4758 115.681 56.8628L123.366 61.6094V90.1401H117.371" stroke="#991B1E" stroke-width="2" stroke-linecap="round" stroke-linejoin="round"/>
<path d="M90.2812 44.5794V57.9608H105.048L98.0515 44.3584C98.0515 44.3584 90.1679 44.5794 90.2789 44.5794H90.2812Z" stroke="#991B1E" stroke-width="2" stroke-linecap="round" stroke-linejoin="round"/>
<path d="M122.812 65.5894H118.981C117.234 65.5894 115.816 66.9999 115.816 68.7419V74.1608C115.816 75.9005 117.232 77.3134 118.981 77.3134H123.366" stroke="#991B1E" stroke-width="2" stroke-linecap="round" stroke-linejoin="round"/>
<path d="M90.8123 66.6943H97.8297" stroke="#991B1E" stroke-width="2" stroke-linecap="round" stroke-linejoin="round"/>
<path d="M100.235 96.1914C102.351 96.1914 104.066 94.4831 104.066 92.3758C104.066 90.2686 102.351 88.5603 100.235 88.5603C98.1191 88.5603 96.404 90.2686 96.404 92.3758C96.404 94.4831 98.1191 96.1914 100.235 96.1914Z" stroke="#991B1E" stroke-width="2" stroke-linecap="round" stroke-linejoin="round"/>
<path d="M100.225 102.948C106.146 102.948 110.946 98.1674 110.946 92.2702C110.946 86.3729 106.146 81.5923 100.225 81.5923C94.3045 81.5923 89.5047 86.3729 89.5047 92.2702C89.5047 98.1674 94.3045 102.948 100.225 102.948Z" stroke="#991B1E" stroke-width="2" stroke-linecap="round" stroke-linejoin="round"/>
</svg>
