<svg width="24" height="24" viewBox="0 0 24 24" fill="none" xmlns="http://www.w3.org/2000/svg">
<g clip-path="url(#clip0_22_3862)">
<path d="M19 18H5C4.44772 18 4 18.4477 4 19C4 19.5523 4.44772 20 5 20H19C19.5523 20 20 19.5523 20 19C20 18.4477 19.5523 18 19 18Z" fill="#991B1E"/>
<path d="M4 17V19C4 19.5523 4.44772 20 5 20C5.55228 20 6 19.5523 6 19V17C6 16.4477 5.55228 16 5 16C4.44772 16 4 16.4477 4 17Z" fill="#991B1E"/>
<path d="M18 17V19C18 19.5523 18.4477 20 19 20C19.5523 20 20 19.5523 20 19V17C20 16.4477 19.5523 16 19 16C18.4477 16 18 16.4477 18 17Z" fill="#991B1E"/>
<path d="M12.0014 15C11.7941 15.0016 11.5914 14.9387 11.4214 14.82L7.42142 12C7.20583 11.8471 7.05956 11.615 7.01459 11.3545C6.96961 11.0941 7.02959 10.8264 7.18142 10.61C7.2572 10.5019 7.35366 10.4098 7.46522 10.3391C7.57678 10.2684 7.70124 10.2206 7.8314 10.1982C7.96156 10.1759 8.09486 10.1796 8.22359 10.2091C8.35232 10.2386 8.47393 10.2933 8.58142 10.37L12.0014 12.76L15.4014 10.2C15.6136 10.0409 15.8803 9.97255 16.1428 10.0101C16.4054 10.0476 16.6423 10.1878 16.8014 10.4C16.9605 10.6122 17.0289 10.8789 16.9914 11.1414C16.9539 11.404 16.8136 11.6409 16.6014 11.8L12.6014 14.8C12.4283 14.9298 12.2178 15 12.0014 15Z" fill="#991B1E"/>
<path d="M12 13C11.7348 13 11.4804 12.8946 11.2929 12.7071C11.1054 12.5196 11 12.2652 11 12V4C11 3.73478 11.1054 3.48043 11.2929 3.29289C11.4804 3.10536 11.7348 3 12 3C12.2652 3 12.5196 3.10536 12.7071 3.29289C12.8946 3.48043 13 3.73478 13 4V12C13 12.2652 12.8946 12.5196 12.7071 12.7071C12.5196 12.8946 12.2652 13 12 13Z" fill="#991B1E"/>
</g>
<defs>
<clipPath id="clip0_22_3862">
<rect width="24" height="24" fill="white"/>
</clipPath>
</defs>
</svg>
