<svg width="292" height="353" viewBox="0 0 292 353" fill="none" xmlns="http://www.w3.org/2000/svg">
<g clip-path="url(#clip0_31_4869)">
<path opacity="0.51" d="M292 318.765H0L31.3479 120.011H260.652L292 318.765Z" fill="#F5F5F5"/>
<path d="M145.994 352.991C226.521 352.991 291.801 338.279 291.801 320.132C291.801 301.985 226.521 287.273 145.994 287.273C65.4675 287.273 0.1875 301.985 0.1875 320.132C0.1875 338.279 65.4675 352.991 145.994 352.991Z" fill="#CCCCCC"/>
<path d="M229.558 338.475H62.8842C61.8781 338.473 60.8862 338.238 59.9865 337.787C59.0868 337.337 58.3039 336.683 57.6995 335.878C57.0952 335.073 56.6858 334.138 56.5038 333.148C56.3217 332.157 56.3719 331.138 56.6504 330.17L64.033 304.513H228.447L235.792 330.17C236.071 331.138 236.121 332.157 235.939 333.148C235.757 334.138 235.347 335.073 234.743 335.878C234.139 336.683 233.356 337.337 232.456 337.787C231.556 338.238 230.564 338.473 229.558 338.475Z" fill="#0E262D"/>
<path d="M72.8475 194.72H219.154C221.109 194.72 222.984 195.498 224.367 196.882C225.75 198.266 226.527 200.143 226.527 202.101V293.098C226.527 293.118 226.523 293.138 226.515 293.156C226.508 293.174 226.497 293.191 226.483 293.205C226.469 293.219 226.452 293.23 226.434 293.238C226.415 293.245 226.396 293.249 226.376 293.249H65.6155C65.5957 293.249 65.5761 293.245 65.5579 293.238C65.5396 293.23 65.523 293.219 65.509 293.205C65.495 293.191 65.4839 293.174 65.4763 293.156C65.4687 293.138 65.4648 293.118 65.4648 293.098V202.101C65.4648 201.131 65.6559 200.17 66.027 199.274C66.3981 198.378 66.9421 197.564 67.6277 196.879C68.3134 196.193 69.1273 195.65 70.023 195.279C70.9186 194.909 71.8784 194.719 72.8475 194.72Z" fill="#0E262D"/>
<path d="M75.6445 205.711H216.357V283.503C216.357 283.543 216.341 283.581 216.313 283.609C216.285 283.638 216.246 283.654 216.206 283.654H75.7952C75.7552 283.654 75.7169 283.638 75.6887 283.609C75.6604 283.581 75.6445 283.543 75.6445 283.503V205.711Z" fill="#991B1E"/>
<path d="M236.046 327.559H55.9531L65.4639 293.08H226.535L236.046 327.559Z" fill="#55687A"/>
<path d="M221.714 315.4H70.2852L74.3814 297.727H217.618L221.714 315.4Z" fill="#0E262D"/>
<g style="mix-blend-mode:overlay">
<path d="M229.078 302.251H62.9219L65.4738 293.08H226.536L229.078 302.251Z" fill="#0E262D"/>
</g>
<path d="M55.9531 327.559H236.046V331.179C236.041 332.093 235.675 332.968 235.027 333.613C234.38 334.258 233.503 334.619 232.59 334.619H59.409C58.4925 334.619 57.6134 334.255 56.9653 333.606C56.3172 332.958 55.9531 332.078 55.9531 331.16V327.541V327.559Z" fill="#0E262D"/>
<path d="M128.02 327.56H163.991V328.078C163.991 328.438 163.92 328.795 163.782 329.128C163.645 329.46 163.443 329.763 163.188 330.017C162.934 330.272 162.632 330.474 162.299 330.612C161.967 330.75 161.611 330.821 161.251 330.821H130.76C130.4 330.821 130.044 330.75 129.711 330.612C129.379 330.474 129.077 330.272 128.822 330.017C128.568 329.763 128.366 329.46 128.228 329.128C128.09 328.795 128.02 328.438 128.02 328.078V327.56Z" fill="#55687A"/>
<g style="mix-blend-mode:overlay">
<path d="M205.103 283.654H87.1224L81.623 194.72H210.603L205.103 283.654Z" fill="#46435A"/>
</g>
<path d="M91.3409 179.318H200.574C201.735 179.318 202.849 179.78 203.67 180.602C204.491 181.424 204.952 182.539 204.952 183.701V283.503C204.952 283.543 204.937 283.581 204.908 283.609C204.88 283.638 204.842 283.654 204.802 283.654H87.094C87.0541 283.654 87.0157 283.638 86.9875 283.609C86.9592 283.581 86.9434 283.543 86.9434 283.503V183.692C86.9446 183.116 87.0594 182.545 87.2812 182.013C87.5029 181.481 87.8274 180.998 88.2358 180.592C88.6443 180.186 89.1288 179.864 89.6616 179.646C90.1945 179.427 90.7651 179.316 91.3409 179.318Z" fill="white"/>
<path d="M91.3409 179.318H200.574C201.735 179.318 202.849 179.78 203.67 180.602C204.491 181.424 204.952 182.539 204.952 183.701V191.242C204.952 191.282 204.937 191.32 204.908 191.349C204.88 191.377 204.842 191.393 204.802 191.393H87.094C87.0541 191.393 87.0157 191.377 86.9875 191.349C86.9592 191.32 86.9434 191.282 86.9434 191.242V183.701C86.9434 183.124 87.0572 182.553 87.2785 182.02C87.4997 181.487 87.8239 181.003 88.2325 180.595C88.6411 180.188 89.126 179.866 89.6595 179.647C90.1929 179.427 90.7643 179.316 91.3409 179.318Z" fill="#0E262D"/>
<path d="M96.1153 184.748C96.1153 185.186 95.9855 185.614 95.7423 185.978C95.4992 186.343 95.1536 186.626 94.7492 186.794C94.3449 186.962 93.8999 187.006 93.4706 186.92C93.0414 186.835 92.6471 186.624 92.3376 186.314C92.0281 186.004 91.8174 185.61 91.732 185.18C91.6466 184.75 91.6904 184.305 91.8579 183.9C92.0254 183.495 92.309 183.149 92.6729 182.906C93.0369 182.663 93.4647 182.533 93.9024 182.533C94.4893 182.533 95.0521 182.766 95.4671 183.181C95.8821 183.597 96.1153 184.16 96.1153 184.748Z" fill="#991B1E"/>
<path d="M102.99 184.748C102.99 185.186 102.86 185.615 102.617 185.979C102.373 186.344 102.027 186.628 101.622 186.795C101.217 186.962 100.772 187.006 100.342 186.919C99.9126 186.833 99.5184 186.621 99.2093 186.311C98.9002 186 98.6902 185.604 98.6058 185.174C98.5215 184.744 98.5667 184.298 98.7356 183.893C98.9046 183.489 99.1896 183.144 99.5548 182.901C99.9199 182.659 100.349 182.531 100.787 182.533C101.077 182.533 101.364 182.59 101.632 182.701C101.9 182.813 102.143 182.976 102.348 183.182C102.553 183.388 102.715 183.632 102.825 183.901C102.935 184.169 102.992 184.457 102.99 184.748Z" fill="#CCCCCC"/>
<path d="M110.174 184.748C110.174 185.186 110.044 185.615 109.8 185.979C109.557 186.344 109.211 186.628 108.806 186.795C108.401 186.962 107.955 187.006 107.526 186.919C107.096 186.833 106.702 186.621 106.393 186.311C106.084 186 105.874 185.604 105.789 185.174C105.705 184.744 105.75 184.298 105.919 183.893C106.088 183.489 106.373 183.144 106.738 182.901C107.104 182.659 107.532 182.531 107.97 182.533C108.261 182.533 108.548 182.59 108.816 182.701C109.084 182.813 109.327 182.976 109.532 183.182C109.737 183.388 109.899 183.632 110.009 183.901C110.119 184.169 110.175 184.457 110.174 184.748Z" fill="white"/>
<path d="M205.009 150.711C205.009 143.688 178.586 143.17 145.995 143.17C113.404 143.17 86.9902 143.698 86.9902 150.711C86.9902 157.724 113.413 163.436 145.995 163.436C178.576 163.436 205.009 157.742 205.009 150.711Z" fill="white"/>
<path d="M261.114 121.104C261.114 141.709 209.577 155.65 145.995 155.65C82.4145 155.65 30.8867 141.709 30.8867 121.104C30.8867 100.499 82.4239 96.2196 145.995 96.2196C209.567 96.2196 261.114 100.508 261.114 121.104Z" fill="#0E262D"/>
<path d="M261.114 120.652C261.114 139.258 209.577 143.443 145.995 143.443C82.4145 143.443 30.8867 139.23 30.8867 120.652C30.8867 102.073 82.4239 86.9539 145.958 86.9539C209.492 86.9539 261.114 102.026 261.114 120.652Z" fill="#CCCCCC"/>
<g style="mix-blend-mode:overlay">
<path d="M145.957 86.9539C130.66 86.9226 115.375 87.845 100.192 89.7157C99.1379 91.4363 98.5654 93.4094 98.5352 95.4278C98.5352 114.025 150.072 130.69 213.653 130.69C228.452 130.716 243.236 129.771 257.911 127.862C258.894 126.928 259.68 125.806 260.224 124.563C260.767 123.319 261.057 121.98 261.075 120.623C261.113 102.026 209.576 86.9539 145.957 86.9539Z" fill="#0E262D"/>
</g>
<path d="M197.947 82.0053C197.947 110.717 174.688 112.866 145.996 112.866C117.303 112.866 94.0535 110.688 94.0535 82.0053C93.9609 75.118 95.2361 68.2808 97.8051 61.8908C100.374 55.5008 104.186 49.6854 109.019 44.7821C113.852 39.8789 119.609 35.9856 125.958 33.3283C132.306 30.6709 139.119 29.3025 146 29.3025C152.882 29.3025 159.694 30.6709 166.043 33.3283C172.391 35.9856 178.149 39.8789 182.982 44.7821C187.815 49.6854 191.627 55.5008 194.196 61.8908C196.765 68.2808 198.04 75.118 197.947 82.0053Z" fill="#F5F5F5"/>
<path d="M156.081 32.1989C156.081 34.6025 151.57 36.5442 145.996 36.5442C140.421 36.5442 135.92 34.6025 135.92 32.1989C135.92 29.7953 140.43 29.0035 145.996 29.0035C151.561 29.0035 156.081 29.8047 156.081 32.1989Z" fill="#CCCCCC"/>
<path d="M150.855 29.6256C150.855 32.6042 148.679 32.7739 145.996 32.7739C143.312 32.7739 141.137 32.6042 141.137 29.6256C141.137 26.647 143.312 9.66155 145.996 9.66155C148.679 9.66155 150.855 26.647 150.855 29.6256Z" fill="#F5F5F5"/>
<path d="M145.958 9.66155C145.874 9.66436 145.792 9.68026 145.713 9.70868C147.166 16.2703 148.07 22.9418 148.415 29.6539C148.415 31.2751 147.973 32.2083 147.238 32.7456C149.301 32.6419 150.817 32.114 150.817 29.6256C150.854 26.647 148.679 9.66155 145.958 9.66155Z" fill="#CCCCCC"/>
<path d="M145.996 12.8946C149.553 12.8946 152.437 10.0081 152.437 6.44732C152.437 2.88656 149.553 0 145.996 0C142.438 0 139.555 2.88656 139.555 6.44732C139.555 10.0081 142.438 12.8946 145.996 12.8946Z" fill="#991B1E"/>
<g style="mix-blend-mode:overlay" opacity="0.47">
<path d="M146.983 0.0848312C147.66 1.56325 148.007 3.17151 148 4.79778C148.038 6.29382 147.746 7.77979 147.148 9.15104C146.549 10.5223 145.657 11.7455 144.535 12.7344C145.014 12.8436 145.504 12.9004 145.995 12.9041C147.641 12.9429 149.239 12.3486 150.46 11.2434C151.681 10.1383 152.432 8.6065 152.559 6.96352C152.686 5.32055 152.178 3.69148 151.141 2.41182C150.104 1.13215 148.616 0.299315 146.983 0.0848312Z" fill="#46435A"/>
</g>
<path d="M145.995 132.971C151.508 132.971 155.977 131.165 155.977 128.937C155.977 126.709 151.508 124.903 145.995 124.903C140.483 124.903 136.014 126.709 136.014 128.937C136.014 131.165 140.483 132.971 145.995 132.971Z" fill="#F5F5F5"/>
<path d="M226.536 115.939C226.536 118.163 222.063 119.973 216.554 119.973C211.045 119.973 206.572 118.163 206.572 115.939C206.572 113.714 211.036 111.904 216.554 111.904C222.072 111.904 226.536 113.742 226.536 115.939Z" fill="#CCCCCC"/>
<path d="M85.4281 115.939C85.4281 118.163 80.9646 119.973 75.4465 119.973C69.9283 119.973 65.4648 118.163 65.4648 115.939C65.4648 113.714 69.9377 111.904 75.4465 111.904C80.9552 111.904 85.4281 113.742 85.4281 115.939Z" fill="#F5F5F5"/>
<path d="M169.5 35.5922C171.697 44.2368 171.925 53.2654 170.166 62.0099C168.406 70.7544 164.705 78.991 159.336 86.1103C153.967 93.2296 147.068 99.0494 139.148 103.139C131.229 107.229 122.492 109.483 113.584 109.736C122.473 112.442 133.745 112.837 146.024 112.837C174.717 112.837 197.976 110.688 197.976 81.9771C197.978 72.366 195.318 62.9425 190.291 54.7539C185.264 46.5653 178.067 39.9324 169.5 35.5922Z" fill="#CCCCCC"/>
<path d="M119.863 245V241.797L122.93 241.211V238.262H111.094L110.859 235.586L122.832 216.562H128.223V234.629H131.602V238.262H128.223V241.211L131.289 241.797V245H119.863ZM115.938 234.629H122.93V223.711L122.812 223.672L122.363 224.531L115.938 234.629ZM144.258 245.41C141.328 245.41 139.004 244.44 137.285 242.5C135.579 240.547 134.727 237.708 134.727 233.984V227.598C134.727 223.874 135.579 221.035 137.285 219.082C138.991 217.129 141.302 216.152 144.219 216.152C147.135 216.152 149.447 217.129 151.152 219.082C152.871 221.035 153.73 223.874 153.73 227.598V233.984C153.73 237.721 152.878 240.56 151.172 242.5C149.479 244.44 147.174 245.41 144.258 245.41ZM144.258 241.328C145.625 241.328 146.66 240.788 147.363 239.707C148.079 238.613 148.438 236.901 148.438 234.57V226.973C148.438 224.668 148.073 222.975 147.344 221.895C146.628 220.801 145.586 220.254 144.219 220.254C142.852 220.254 141.81 220.801 141.094 221.895C140.378 222.975 140.02 224.668 140.02 226.973V234.57C140.02 236.901 140.378 238.613 141.094 239.707C141.823 240.788 142.878 241.328 144.258 241.328ZM165.449 245V241.797L168.516 241.211V238.262H156.68L156.445 235.586L168.418 216.562H173.809V234.629H177.188V238.262H173.809V241.211L176.875 241.797V245H165.449ZM161.523 234.629H168.516V223.711L168.398 223.672L167.949 224.531L161.523 234.629Z" fill="#991B1E"/>
<path d="M118.5 262.164C117.672 262.164 116.964 261.982 116.375 261.617C115.786 261.253 115.333 260.747 115.016 260.102C114.698 259.451 114.539 258.703 114.539 257.859V257.695C114.539 256.857 114.698 256.115 115.016 255.469C115.333 254.823 115.786 254.315 116.375 253.945C116.964 253.576 117.667 253.391 118.484 253.391C119.307 253.391 120.013 253.576 120.602 253.945C121.19 254.31 121.641 254.815 121.953 255.461C122.271 256.107 122.43 256.852 122.43 257.695V257.859C122.43 258.703 122.271 259.451 121.953 260.102C121.641 260.747 121.19 261.253 120.602 261.617C120.013 261.982 119.312 262.164 118.5 262.164ZM118.5 260.531C118.911 260.531 119.25 260.419 119.516 260.195C119.786 259.971 119.987 259.659 120.117 259.258C120.247 258.852 120.312 258.385 120.312 257.859V257.695C120.312 257.174 120.247 256.714 120.117 256.312C119.987 255.911 119.786 255.599 119.516 255.375C119.245 255.146 118.901 255.031 118.484 255.031C118.068 255.031 117.724 255.146 117.453 255.375C117.188 255.599 116.99 255.911 116.859 256.312C116.729 256.714 116.664 257.174 116.664 257.695V257.859C116.664 258.391 116.729 258.857 116.859 259.258C116.99 259.659 117.19 259.971 117.461 260.195C117.732 260.419 118.078 260.531 118.5 260.531ZM123.656 262V260.719L124.883 260.484V255.07L123.656 254.836V253.547H127H128.234V254.836L127 255.07V260.367H129.445V253.547H131.57V260.367H134.016V255.07L132.789 254.836V253.547H136.141H137.367V254.836L136.141 255.07V260.484L137.367 260.719V262H123.656ZM138.625 262V260.719L139.852 260.484V255.07L138.625 254.836V253.547H141.977H143.109V254.836L141.977 255.07V258.859L142.023 258.867L144.977 253.547H147.102H148.328V254.836L147.102 255.07V260.484L148.328 260.719V262H143.844V260.719L144.977 260.484V256.68L144.93 256.672L141.977 262H138.625ZM153.656 262.164C152.839 262.164 152.133 261.99 151.539 261.641C150.951 261.286 150.497 260.802 150.18 260.188C149.862 259.568 149.703 258.859 149.703 258.062V256.977C149.703 255.742 149.865 254.703 150.188 253.859C150.516 253.01 150.971 252.344 151.555 251.859C152.143 251.375 152.826 251.055 153.602 250.898C154.138 250.81 154.534 250.695 154.789 250.555C155.044 250.409 155.172 250.172 155.172 249.844H156.812L156.836 249.891C156.846 250.385 156.784 250.789 156.648 251.102C156.518 251.414 156.328 251.664 156.078 251.852C155.828 252.034 155.529 252.177 155.18 252.281C154.831 252.385 154.443 252.477 154.016 252.555C153.51 252.648 153.086 252.797 152.742 253C152.398 253.198 152.128 253.453 151.93 253.766C151.737 254.078 151.607 254.456 151.539 254.898L151.57 254.938C151.862 254.667 152.211 254.448 152.617 254.281C153.023 254.109 153.469 254.023 153.953 254.023C154.698 254.023 155.341 254.19 155.883 254.523C156.43 254.852 156.852 255.31 157.148 255.898C157.445 256.487 157.594 257.164 157.594 257.93V258.102C157.594 258.898 157.435 259.604 157.117 260.219C156.805 260.828 156.354 261.305 155.766 261.648C155.177 261.992 154.474 262.164 153.656 262.164ZM153.656 260.531C154.068 260.531 154.406 260.43 154.672 260.227C154.943 260.018 155.143 259.734 155.273 259.375C155.404 259.01 155.469 258.586 155.469 258.102V257.93C155.469 257.487 155.401 257.096 155.266 256.758C155.135 256.414 154.935 256.146 154.664 255.953C154.398 255.76 154.057 255.664 153.641 255.664C153.229 255.664 152.888 255.76 152.617 255.953C152.352 256.146 152.154 256.414 152.023 256.758C151.893 257.096 151.828 257.487 151.828 257.93V258.062C151.828 258.547 151.893 258.977 152.023 259.352C152.154 259.721 152.352 260.01 152.617 260.219C152.888 260.427 153.234 260.531 153.656 260.531ZM158.594 262V260.719L159.828 260.484V255.07L158.594 254.836V253.547H163.031V254.836L161.945 255.07V256.836H162.734L164.102 254.859C164.419 254.38 164.745 254.018 165.078 253.773C165.417 253.529 165.818 253.406 166.281 253.406C166.562 253.406 166.805 253.443 167.008 253.516C167.211 253.583 167.414 253.68 167.617 253.805L167.266 255.273C167.104 255.237 166.997 255.214 166.945 255.203C166.898 255.193 166.833 255.188 166.75 255.188C166.568 255.188 166.391 255.25 166.219 255.375C166.052 255.495 165.904 255.648 165.773 255.836L164.562 257.539L166.672 260.523L167.805 260.719V262H164.906L162.844 258.75H161.945V260.484L163.031 260.719V262H158.594ZM171.477 262.164C170.628 262.164 169.958 261.943 169.469 261.5C168.984 261.052 168.742 260.44 168.742 259.664C168.742 259.133 168.885 258.667 169.172 258.266C169.464 257.859 169.891 257.544 170.453 257.32C171.021 257.091 171.711 256.977 172.523 256.977H173.727V256.312C173.727 255.885 173.599 255.542 173.344 255.281C173.094 255.021 172.724 254.891 172.234 254.891C171.969 254.891 171.729 254.924 171.516 254.992C171.307 255.055 171.12 255.146 170.953 255.266L170.773 256.398H169.227L169.211 254.258C169.638 253.997 170.107 253.789 170.617 253.633C171.133 253.471 171.706 253.391 172.336 253.391C173.424 253.391 174.281 253.646 174.906 254.156C175.536 254.661 175.852 255.388 175.852 256.336V259.938C175.852 260.052 175.852 260.164 175.852 260.273C175.857 260.383 175.867 260.49 175.883 260.594L176.75 260.719V262H174.055C173.997 261.839 173.943 261.674 173.891 261.508C173.844 261.336 173.81 261.164 173.789 260.992C173.513 261.341 173.182 261.625 172.797 261.844C172.417 262.057 171.977 262.164 171.477 262.164ZM172 260.562C172.359 260.562 172.695 260.479 173.008 260.312C173.326 260.146 173.565 259.935 173.727 259.68V258.305H172.516C171.969 258.305 171.555 258.432 171.273 258.688C170.997 258.938 170.859 259.234 170.859 259.578C170.859 259.891 170.958 260.133 171.156 260.305C171.354 260.477 171.635 260.562 172 260.562Z" fill="#991B1E"/>
</g>
<defs>
<clipPath id="clip0_31_4869">
<rect width="292" height="353" fill="white"/>
</clipPath>
</defs>
</svg>
