<svg width="125" height="51" viewBox="0 0 125 51" fill="none" xmlns="http://www.w3.org/2000/svg">
<path opacity="0.6" d="M82.24 10.06C81.5467 10.06 80.92 9.90667 80.36 9.6C79.8067 9.29333 79.37 8.87 79.05 8.33C78.7367 7.78333 78.58 7.17333 78.58 6.5C78.58 5.82667 78.7367 5.22 79.05 4.68C79.37 4.13333 79.81 3.70667 80.37 3.4C80.93 3.09333 81.5567 2.94 82.25 2.94C82.77 2.94 83.25 3.02667 83.69 3.2C84.13 3.37333 84.5033 3.62667 84.81 3.96L84.34 4.43C83.7933 3.87667 83.1033 3.6 82.27 3.6C81.7167 3.6 81.2133 3.72667 80.76 3.98C80.3067 4.23333 79.95 4.58 79.69 5.02C79.4367 5.46 79.31 5.95333 79.31 6.5C79.31 7.04667 79.4367 7.54 79.69 7.98C79.95 8.42 80.3067 8.76667 80.76 9.02C81.2133 9.27333 81.7167 9.4 82.27 9.4C83.11 9.4 83.8 9.12 84.34 8.56L84.81 9.03C84.5033 9.36333 84.1267 9.62 83.68 9.8C83.24 9.97333 82.76 10.06 82.24 10.06ZM88.1038 10.05C87.5972 10.05 87.1405 9.93667 86.7338 9.71C86.3272 9.47667 86.0072 9.15667 85.7738 8.75C85.5405 8.34333 85.4238 7.88333 85.4238 7.37C85.4238 6.85667 85.5405 6.39667 85.7738 5.99C86.0072 5.58333 86.3272 5.26667 86.7338 5.04C87.1405 4.81333 87.5972 4.7 88.1038 4.7C88.6105 4.7 89.0672 4.81333 89.4738 5.04C89.8805 5.26667 90.1972 5.58333 90.4238 5.99C90.6572 6.39667 90.7738 6.85667 90.7738 7.37C90.7738 7.88333 90.6572 8.34333 90.4238 8.75C90.1972 9.15667 89.8805 9.47667 89.4738 9.71C89.0672 9.93667 88.6105 10.05 88.1038 10.05ZM88.1038 9.42C88.4772 9.42 88.8105 9.33667 89.1038 9.17C89.4038 8.99667 89.6372 8.75333 89.8038 8.44C89.9705 8.12667 90.0538 7.77 90.0538 7.37C90.0538 6.97 89.9705 6.61333 89.8038 6.3C89.6372 5.98667 89.4038 5.74667 89.1038 5.58C88.8105 5.40667 88.4772 5.32 88.1038 5.32C87.7305 5.32 87.3938 5.40667 87.0938 5.58C86.8005 5.74667 86.5672 5.98667 86.3938 6.3C86.2272 6.61333 86.1438 6.97 86.1438 7.37C86.1438 7.77 86.2272 8.12667 86.3938 8.44C86.5672 8.75333 86.8005 8.99667 87.0938 9.17C87.3938 9.33667 87.7305 9.42 88.1038 9.42ZM94.8122 7.26C95.1855 7.34667 95.4722 7.49667 95.6722 7.71C95.8789 7.92333 95.9822 8.18333 95.9822 8.49C95.9822 8.79667 95.8755 9.07 95.6622 9.31C95.4555 9.55 95.1722 9.73667 94.8122 9.87C94.4522 9.99667 94.0555 10.06 93.6222 10.06C93.2422 10.06 92.8689 10.0067 92.5022 9.9C92.1355 9.78667 91.8155 9.62333 91.5422 9.41L91.7822 8.88C92.0222 9.06 92.3022 9.2 92.6222 9.3C92.9422 9.4 93.2655 9.45 93.5922 9.45C94.0789 9.45 94.4755 9.36 94.7822 9.18C95.0955 8.99333 95.2522 8.74333 95.2522 8.43C95.2522 8.15 95.1255 7.93333 94.8722 7.78C94.6189 7.62 94.2722 7.54 93.8322 7.54H92.9322V7.02H93.7922C94.1855 7.02 94.5022 6.94667 94.7422 6.8C94.9822 6.64667 95.1022 6.44333 95.1022 6.19C95.1022 5.91 94.9655 5.69 94.6922 5.53C94.4255 5.37 94.0755 5.29 93.6422 5.29C93.0755 5.29 92.5155 5.43333 91.9622 5.72L91.7622 5.17C92.3889 4.84333 93.0389 4.68 93.7122 4.68C94.1122 4.68 94.4722 4.74 94.7922 4.86C95.1189 4.97333 95.3722 5.13667 95.5522 5.35C95.7389 5.56333 95.8322 5.81 95.8322 6.09C95.8322 6.35667 95.7389 6.59333 95.5522 6.8C95.3722 7.00667 95.1255 7.16 94.8122 7.26ZM102.724 9.38V11.27H102.054V10H97.344V11.27H96.674V9.38H96.974C97.3273 9.36 97.5673 9.1 97.694 8.6C97.8207 8.1 97.9073 7.4 97.954 6.5L98.024 4.74H101.904V9.38H102.724ZM98.604 6.54C98.5707 7.28667 98.5073 7.90333 98.414 8.39C98.3207 8.87 98.154 9.2 97.914 9.38H101.194V5.37H98.664L98.604 6.54ZM105.918 4.7C106.604 4.7 107.131 4.87333 107.498 5.22C107.864 5.56 108.048 6.06667 108.048 6.74V10H107.368V9.18C107.208 9.45333 106.971 9.66667 106.658 9.82C106.351 9.97333 105.984 10.05 105.558 10.05C104.971 10.05 104.504 9.91 104.158 9.63C103.811 9.35 103.638 8.98 103.638 8.52C103.638 8.07333 103.798 7.71333 104.118 7.44C104.444 7.16667 104.961 7.03 105.668 7.03H107.338V6.71C107.338 6.25667 107.211 5.91333 106.958 5.68C106.704 5.44 106.334 5.32 105.848 5.32C105.514 5.32 105.194 5.37667 104.888 5.49C104.581 5.59667 104.318 5.74667 104.098 5.94L103.778 5.41C104.044 5.18333 104.364 5.01 104.738 4.89C105.111 4.76333 105.504 4.7 105.918 4.7ZM105.668 9.49C106.068 9.49 106.411 9.4 106.698 9.22C106.984 9.03333 107.198 8.76667 107.338 8.42V7.56H105.688C104.788 7.56 104.338 7.87333 104.338 8.5C104.338 8.80667 104.454 9.05 104.688 9.23C104.921 9.40333 105.248 9.49 105.668 9.49ZM109.938 4.74H110.648V7.07H113.958V4.74H114.668V10H113.958V7.68H110.648V10H109.938V4.74ZM118.856 10.05C118.349 10.05 117.892 9.93667 117.486 9.71C117.079 9.47667 116.759 9.15667 116.526 8.75C116.292 8.34333 116.176 7.88333 116.176 7.37C116.176 6.85667 116.292 6.39667 116.526 5.99C116.759 5.58333 117.079 5.26667 117.486 5.04C117.892 4.81333 118.349 4.7 118.856 4.7C119.362 4.7 119.819 4.81333 120.226 5.04C120.632 5.26667 120.949 5.58333 121.176 5.99C121.409 6.39667 121.526 6.85667 121.526 7.37C121.526 7.88333 121.409 8.34333 121.176 8.75C120.949 9.15667 120.632 9.47667 120.226 9.71C119.819 9.93667 119.362 10.05 118.856 10.05ZM118.856 9.42C119.229 9.42 119.562 9.33667 119.856 9.17C120.156 8.99667 120.389 8.75333 120.556 8.44C120.722 8.12667 120.806 7.77 120.806 7.37C120.806 6.97 120.722 6.61333 120.556 6.3C120.389 5.98667 120.156 5.74667 119.856 5.58C119.562 5.40667 119.229 5.32 118.856 5.32C118.482 5.32 118.146 5.40667 117.846 5.58C117.552 5.74667 117.319 5.98667 117.146 6.3C116.979 6.61333 116.896 6.97 116.896 7.37C116.896 7.77 116.979 8.12667 117.146 8.44C117.319 8.75333 117.552 8.99667 117.846 9.17C118.146 9.33667 118.482 9.42 118.856 9.42ZM123.093 5.79C122.947 5.79 122.82 5.73667 122.713 5.63C122.613 5.52333 122.563 5.39333 122.563 5.24C122.563 5.08667 122.613 4.96 122.713 4.86C122.82 4.75333 122.947 4.7 123.093 4.7C123.24 4.7 123.367 4.75333 123.473 4.86C123.58 4.96 123.633 5.08667 123.633 5.24C123.633 5.39333 123.58 5.52333 123.473 5.63C123.367 5.73667 123.24 5.79 123.093 5.79ZM123.093 10.05C122.947 10.05 122.82 9.99667 122.713 9.89C122.613 9.78333 122.563 9.65333 122.563 9.5C122.563 9.34667 122.613 9.22 122.713 9.12C122.82 9.01333 122.947 8.96 123.093 8.96C123.24 8.96 123.367 9.01333 123.473 9.12C123.58 9.22 123.633 9.34667 123.633 9.5C123.633 9.65333 123.58 9.78333 123.473 9.89C123.367 9.99667 123.24 10.05 123.093 10.05Z" fill="#F5F5F5"/>
<g clip-path="url(#clip0_1_602)">
<path d="M33.0099 40.5686C33.0099 39.9685 32.9968 39.4815 32.9617 38.9988H33.892L33.9402 39.9337H33.9775C34.1528 39.6034 34.418 39.3283 34.7429 39.1396C35.0679 38.9509 35.4397 38.8562 35.8162 38.8662C36.1807 38.8629 36.5369 38.9735 36.8343 39.1823C37.1317 39.3911 37.3551 39.6876 37.4727 40.0294H37.4969C37.6601 39.7341 37.8844 39.4763 38.1551 39.2728C38.5258 38.9922 38.9835 38.8484 39.4496 38.8662C40.2241 38.8662 41.3716 39.3706 41.3716 41.3817V44.7974H40.3273V41.5252C40.3273 40.4121 39.9148 39.7402 39.0569 39.7402C38.7729 39.7521 38.4995 39.8505 38.274 40.0221C38.0486 40.1938 37.8822 40.4302 37.7975 40.699C37.7436 40.8694 37.7155 41.0467 37.7141 41.2252V44.8082H36.6741V41.3296C36.6741 40.4077 36.2616 39.7359 35.452 39.7359C34.7937 39.7359 34.3045 40.262 34.1355 40.7904C34.0772 40.9559 34.0489 41.1303 34.0521 41.3056V44.8039H33.0121L33.0099 40.5686Z" fill="#FCC51B"/>
<path d="M46.3374 44.7968L46.2519 44.0663H46.2168C46.0097 44.342 45.7393 44.5647 45.4279 44.716C45.1165 44.8672 44.7731 44.9426 44.4264 44.9359C43.2416 44.9359 42.636 44.1098 42.636 43.2705C42.636 41.8682 43.8954 41.0963 46.1465 41.1137V40.9942C46.1465 40.5137 46.0149 39.6505 44.8169 39.6505C44.2784 39.6524 43.7511 39.803 43.2942 40.0854L43.0507 39.3896C43.6312 39.0439 44.2976 38.8655 44.9749 38.8743C46.7653 38.8743 47.1997 40.0854 47.1997 41.2464V43.4205C47.1919 43.8855 47.2242 44.3503 47.2963 44.8098L46.3374 44.7968ZM46.1795 41.8377C45.0188 41.8138 43.7001 42.0182 43.7001 43.1422C43.6894 43.2762 43.7079 43.4109 43.7545 43.5371C43.8011 43.6633 43.8745 43.7781 43.9699 43.8736C44.0653 43.9692 44.1803 44.0432 44.3072 44.0907C44.434 44.1382 44.5697 44.1581 44.705 44.1489C45.0145 44.1569 45.3185 44.067 45.573 43.8923C45.8275 43.7175 46.0191 43.467 46.1202 43.177C46.1571 43.0691 46.1771 42.9562 46.1795 42.8422V41.8377Z" fill="#FCC51B"/>
<path d="M48.928 40.8075C48.928 40.1248 48.9149 39.5378 48.8798 38.9986H49.8057L49.843 40.1357H49.8912C50.1567 39.3573 50.7974 38.8659 51.5105 38.8659C51.6127 38.8639 51.7146 38.8763 51.8133 38.9029V39.8965C51.6943 39.8714 51.5729 39.8597 51.4512 39.8617C50.7009 39.8617 50.1699 40.4248 50.0229 41.2141C49.9931 41.3762 49.977 41.5406 49.9746 41.7054V44.7971H48.928V40.8075Z" fill="#FCC51B"/>
<path d="M53.9749 41.6571H53.9991C54.1439 41.4549 54.3501 41.2027 54.5191 41.0049L56.2348 39.0046H57.5184L55.2563 41.3962L57.8322 44.8118H56.5376L54.5191 42.0332L53.9749 42.6116V44.7857H52.9218V36.2891H53.9749V41.6571Z" fill="#FCC51B"/>
<path d="M59.1925 42.09C59.2166 43.5163 60.136 44.1033 61.2001 44.1033C61.7561 44.1205 62.3093 44.0181 62.8215 43.8033L63.0037 44.5577C62.3874 44.8136 61.7232 44.9367 61.0553 44.9186C59.2539 44.9186 58.1766 43.7424 58.1766 41.9944C58.1766 40.2463 59.2166 38.8657 60.9215 38.8657C62.8325 38.8657 63.335 40.5311 63.335 41.5987C63.3334 41.7631 63.3209 41.9272 63.2977 42.09H59.1925ZM62.3125 41.3356C62.3257 40.6638 62.0361 39.6202 60.8381 39.6202C59.7608 39.6202 59.289 40.6029 59.2057 41.3356H62.3125Z" fill="#FCC51B"/>
<path d="M65.9414 37.3335V38.9989H67.4663V39.8012H65.9414V42.9298C65.9414 43.6473 66.1476 44.0561 66.7401 44.0561C66.9478 44.0585 67.1551 44.0344 67.3566 43.9843L67.4049 44.7735C67.1022 44.8797 66.7823 44.9291 66.4614 44.9192C66.2489 44.9319 66.0362 44.8987 65.8381 44.8217C65.6399 44.7447 65.461 44.6259 65.3139 44.4735C65.0111 44.1626 64.9014 43.6473 64.9014 42.9646V39.8012H63.9952V38.9989H64.9014V37.6118L65.9414 37.3335Z" fill="#FCC51B"/>
<path d="M69.8488 37.3677C69.8488 37.5407 69.7795 37.7066 69.656 37.8289C69.5326 37.9512 69.3651 38.0199 69.1906 38.0199C69.016 38.0199 68.8486 37.9512 68.7251 37.8289C68.6017 37.7066 68.5323 37.5407 68.5323 37.3677C68.5323 37.1947 68.6017 37.0288 68.7251 36.9065C68.8486 36.7841 69.016 36.7154 69.1906 36.7154C69.278 36.7117 69.3653 36.7261 69.4468 36.7575C69.5284 36.789 69.6024 36.8369 69.6643 36.8982C69.7262 36.9596 69.7745 37.033 69.8063 37.1138C69.8381 37.1946 69.8525 37.281 69.8488 37.3677ZM68.6618 44.7968V38.9983H69.7259V44.7968H68.6618Z" fill="#FCC51B"/>
<path d="M71.4929 40.5681C71.4929 39.9681 71.4929 39.4811 71.4446 38.9984H72.388L72.4495 39.955H72.4714C72.6642 39.6165 72.9465 39.3365 73.2878 39.1449C73.6291 38.9534 74.0167 38.8576 74.4088 38.8679C75.2184 38.8679 76.4757 39.3484 76.4757 41.3378V44.7991H75.4115V41.4552C75.4115 40.5203 75.0605 39.7398 74.0578 39.7398C73.7336 39.7455 73.4198 39.8543 73.1627 40.05C72.9056 40.2457 72.7186 40.518 72.6294 40.8269C72.5782 40.9864 72.5538 41.1531 72.557 41.3204V44.7991H71.4929V40.5681Z" fill="#FCC51B"/>
<path d="M83.2483 38.9981C83.2242 39.4155 83.2001 39.8851 83.2001 40.5918V43.9595C83.2001 45.2901 82.9346 46.1033 82.3641 46.6077C81.7937 47.1121 80.9752 47.3013 80.2358 47.3013C79.5359 47.3013 78.7614 47.1338 78.2897 46.8229L78.5552 46.0207C79.0753 46.3245 79.6694 46.4817 80.2731 46.4751C81.3702 46.4751 82.1601 45.912 82.1601 44.4509V43.7987H82.1359C81.9396 44.109 81.6638 44.3623 81.3366 44.5326C81.0094 44.7029 80.6424 44.7843 80.2731 44.7683C78.8206 44.7683 77.7806 43.5465 77.7806 41.9419C77.7806 39.9852 79.0752 38.8633 80.4136 38.8633C81.4294 38.8633 81.9845 39.3894 82.2391 39.8699H82.2785L82.3268 39.0003L83.2483 38.9981ZM82.1513 41.2875C82.1589 41.0821 82.125 40.8773 82.0514 40.6851C81.9779 40.4929 81.8662 40.3173 81.7231 40.1685C81.5799 40.0198 81.4082 39.901 81.2179 39.819C81.0277 39.7371 80.8228 39.6938 80.6154 39.6916C79.5996 39.6916 78.8733 40.5439 78.8733 41.8854C78.8733 43.0247 79.4525 43.9704 80.6022 43.9704C80.933 43.9683 81.2546 43.8618 81.5201 43.6663C81.7856 43.4708 81.9814 43.1966 82.0789 42.8833C82.1355 42.7009 82.1636 42.511 82.1623 42.3202L82.1513 41.2875Z" fill="#FCC51B"/>
<path d="M0 35.1937V22.7227H2.28844V35.1937H0Z" fill="#F5F5F5"/>
<path d="M6.08396 26.0993C6.08396 24.81 6.05763 23.7533 5.98083 22.7228H7.98185L8.08717 24.7339H8.16396C8.86607 23.5468 10.0355 22.4401 12.1133 22.4401C12.8972 22.4325 13.6635 22.6697 14.3035 23.1181C14.9435 23.5666 15.4247 24.2034 15.6787 24.9382H15.7314C16.0783 24.3058 16.5561 23.7531 17.1334 23.3163C17.93 22.7136 18.9142 22.4059 19.9156 22.4466C21.5809 22.4466 24.0514 23.5337 24.0514 27.856V35.1938H21.8156V28.1343C21.8156 25.7427 20.938 24.2947 19.084 24.2947C17.7851 24.2947 16.7714 25.2492 16.3809 26.3558C16.261 26.7217 16.1996 27.1039 16.1988 27.4886V35.1938H13.963V27.7212C13.963 25.7383 13.0853 24.2947 11.33 24.2947C9.89949 24.2947 8.85949 25.4274 8.49527 26.5624C8.368 26.9174 8.30631 27.2923 8.31316 27.669V35.1938H6.08396V26.0993Z" fill="#F5F5F5"/>
<path d="M27.7728 26.7948C27.7728 25.1968 27.7201 23.9075 27.6697 22.7226H29.7234L29.8265 24.862H29.8791C30.8138 23.34 32.2926 22.4399 34.3507 22.4399C37.3939 22.4399 39.6802 24.9902 39.6802 28.7777C39.6802 33.2608 36.9244 35.4763 33.9602 35.4763C32.297 35.4763 30.8402 34.7545 30.0876 33.5195H30.0349V40.2964H27.7728V26.7948ZM30.0349 30.117C30.0415 30.4288 30.076 30.7395 30.138 31.0453C30.3287 31.8038 30.7703 32.4771 31.3923 32.9579C32.0143 33.4387 32.7808 33.6991 33.5696 33.6978C35.9831 33.6978 37.3917 31.7411 37.3917 28.8798C37.3917 26.3817 36.0643 24.2445 33.6464 24.2445C32.0864 24.2445 30.6317 25.3512 30.1885 27.0514C30.0973 27.3531 30.0449 27.665 30.0327 27.9797L30.0349 30.117Z" fill="#F5F5F5"/>
<path d="M53.0976 31.7911C53.0976 33.0804 53.1239 34.2132 53.2007 35.1937H51.1734L51.0439 33.1565H50.9913C50.5666 33.875 49.9567 34.4685 49.2241 34.8762C48.4915 35.2838 47.6626 35.491 46.8225 35.4764C44.8478 35.4764 42.4803 34.3893 42.4803 30.0148V22.7227H44.7688V29.6278C44.7688 31.9977 45.4972 33.5957 47.5772 33.5957C48.0028 33.596 48.4242 33.5127 48.8171 33.3507C49.21 33.1887 49.5667 32.9511 49.8664 32.6517C50.1661 32.3523 50.4029 31.997 50.5632 31.6063C50.7235 31.2157 50.8041 30.7975 50.8004 30.3758V22.7227H53.0976V31.7911Z" fill="#F5F5F5"/>
<path d="M56.8994 16.8999H59.1857V35.1934H56.8994V16.8999Z" fill="#F5F5F5"/>
<path d="M62.7223 32.8741C63.6291 33.4353 64.6705 33.7468 65.7392 33.7764C67.4023 33.7764 68.1834 32.9524 68.1834 31.9218C68.1834 30.8347 67.5252 30.2455 65.8423 29.6281C63.5802 28.8301 62.5161 27.593 62.5161 26.0994C62.5161 24.0883 64.1529 22.4402 66.856 22.4402C67.9371 22.4296 69.0026 22.6955 69.9497 23.2121L69.3792 24.8623C68.6068 24.3858 67.7154 24.1327 66.8055 24.1318C65.454 24.1318 64.6992 24.9036 64.6992 25.832C64.6992 26.8625 65.454 27.3278 67.0908 27.9453C69.2849 28.7693 70.3929 29.852 70.3929 31.7066C70.3929 33.896 68.6771 35.4418 65.6866 35.4418C64.4542 35.4641 63.2368 35.1713 62.1519 34.5917L62.7223 32.8741Z" fill="#F5F5F5"/>
<path d="M74.5993 29.369C74.6585 32.4368 76.6354 33.6978 78.9238 33.6978C80.5606 33.6978 81.5568 33.4152 82.4081 33.0456L82.7964 34.6697C81.9912 35.0284 80.6133 35.4415 78.6123 35.4415C74.7375 35.4415 72.4227 32.9173 72.4227 29.156C72.4227 25.3946 74.6585 22.4399 78.3292 22.4399C82.4388 22.4399 83.5293 26.0208 83.5293 28.3102C83.5247 28.6629 83.499 29.015 83.4525 29.3647L74.5993 29.369ZM81.3066 27.7471C81.333 26.3035 80.7076 24.051 78.134 24.051C75.8214 24.051 74.8055 26.1643 74.6234 27.7471H81.3066Z" fill="#F5F5F5"/>
<path d="M89.0033 15V51L97.3848 42.6946H125V15H89.0033Z" fill="#FCC51B"/>
<path d="M97.2114 21.4531V35.9331H95.3245V21.4531H97.2114Z" fill="#F5F5F5"/>
<path d="M105.04 28.3498C105.04 27.2758 105.018 26.393 104.954 25.5364H106.633L106.718 27.2105H106.784C107.368 26.2235 108.344 25.2994 110.075 25.2994C110.729 25.2938 111.368 25.4933 111.901 25.8694C112.433 26.2455 112.832 26.7789 113.04 27.3932H113.083C113.374 26.8659 113.773 26.4051 114.255 26.0408C114.918 25.5363 115.739 25.2779 116.574 25.3103C117.961 25.3103 120.021 26.2126 120.021 29.8217V35.9333H118.156V30.0478C118.156 28.0498 117.419 26.8453 115.881 26.8453C114.797 26.8453 113.95 27.641 113.625 28.565C113.526 28.8706 113.474 29.1897 113.474 29.5108V35.9333H111.609V29.7043C111.609 28.0498 110.872 26.8453 109.415 26.8453C108.224 26.8453 107.355 27.791 107.052 28.7368C106.946 29.0333 106.895 29.3463 106.901 29.6608V35.9333H105.036L105.04 28.3498Z" fill="#F5F5F5"/>
<path d="M103.684 19.7983L99.8865 23.5618V19.7983H103.684Z" fill="#F5F5F5"/>
<path d="M2.27097 18.7422L0.0527344 20.9403V18.7422H2.27097Z" fill="#FCC51B"/>
</g>
<defs>
<clipPath id="clip0_1_602">
<rect width="125" height="36" fill="white" transform="translate(0 15)"/>
</clipPath>
</defs>
</svg>
