<svg width="24" height="24" viewBox="0 0 24 24" fill="none" xmlns="http://www.w3.org/2000/svg">
<g id="funnel-outline" clip-path="url(#clip0_79_20142)">
<g id="Layer 2">
<g id="funnel">
<path id="Vector" d="M13.9001 22C13.6838 22 13.4732 21.9298 13.3001 21.8L9.30013 18.75C9.17777 18.6558 9.07889 18.5346 9.01122 18.3958C8.94356 18.257 8.90896 18.1044 8.91013 17.95V14.68L4.11013 5.46C4.03108 5.30741 3.99268 5.13703 3.99865 4.96529C4.00462 4.79354 4.05474 4.62623 4.14419 4.4795C4.23364 4.33276 4.35939 4.21155 4.50931 4.12757C4.65924 4.04358 4.82828 3.99964 5.00013 4H19.0001C19.1737 4.00003 19.3442 4.04523 19.495 4.13114C19.6458 4.21705 19.7716 4.34072 19.8601 4.49C19.9479 4.64202 19.9941 4.81447 19.9941 4.99C19.9941 5.16554 19.9479 5.33798 19.8601 5.49L14.8601 14.7V21C14.8614 21.1864 14.8106 21.3694 14.7134 21.5284C14.6163 21.6874 14.4766 21.8161 14.3101 21.9C14.1821 21.9621 14.0424 21.9962 13.9001 22V22ZM10.9001 17.46L12.9001 18.99V14.44C12.8995 14.2876 12.9337 14.1371 13.0001 14L17.3001 6H6.64013L10.7701 14C10.8431 14.1423 10.8808 14.3001 10.8801 14.46L10.9001 17.46Z" fill="#991B1E"/>
</g>
</g>
</g>
<defs>
<clipPath id="clip0_79_20142">
<rect width="24" height="24" fill="white"/>
</clipPath>
</defs>
</svg>
