<svg width="63" height="27" viewBox="0 0 63 27" fill="none" xmlns="http://www.w3.org/2000/svg">
<rect width="63" height="27" fill="#0E262D"/>
<path d="M15.3516 19V17.7188L16.3438 17.5312L19.625 13.3359L16.5469 9.10938L15.6094 8.91406V7.625H19.8906V8.91406L18.8125 9.01562L20.8828 11.9219L22.9297 9.01562L21.8594 8.91406V7.625H26.1016V8.91406L25.0859 9.10938L22.1406 13.1797L25.4375 17.5234L26.5 17.7188V19H22.125V17.7188L23.125 17.6172L20.8906 14.5547L18.625 17.6172L19.6016 17.7188V19H15.3516ZM27.5469 19V17.7188L28.7734 17.4844V12.0703L27.5469 11.8359V10.5469H30.8984H32.0312V11.8359L30.8984 12.0703V15.8594L30.9453 15.8672L33.8984 10.5469H36.0234H37.25V11.8359L36.0234 12.0703V17.4844L37.25 17.7188V19H32.7656V17.7188L33.8984 17.4844V13.6797L33.8516 13.6719L30.8984 19H27.5469ZM40.3906 19V17.7188L41.6172 17.4844V12.1719H40.125L40.0312 13.3516H38.375V10.5469H47.0312V13.3516H45.3672L45.2656 12.1719H43.7422V17.4844L44.9688 17.7188V19H40.3906Z" fill="#F5F5F5"/>
</svg>
