<svg width="38" height="57" viewBox="0 0 38 57" fill="none" xmlns="http://www.w3.org/2000/svg">
<g clip-path="url(#clip0_4_638)">
<path fill-rule="evenodd" clip-rule="evenodd" d="M19 0C8.50553 0 0 8.45278 0 18.8822C0 19.3096 0.0355745 19.766 0.0970213 20.2481C1.64289 30.6775 10.682 38.6867 21.6066 38.6867C22.0691 38.6867 22.5251 38.6674 22.9811 38.6385C21.5452 38.992 20.0446 39.1817 18.502 39.1817C13.0979 39.1817 8.23711 36.8869 4.8446 33.2262C10.4751 44.5651 19.0032 56.9968 19.0032 56.9968C19.0032 56.9968 38.0032 29.3051 38.0032 18.8789C38.0032 8.45278 29.4912 0 19 0ZM19 31.4456C11.662 31.4456 5.71455 25.5351 5.71455 18.2426C5.71455 10.95 11.662 5.03953 19 5.03953C26.338 5.03953 32.2854 10.95 32.2854 18.2426C32.2854 25.5351 26.338 31.4456 19 31.4456Z" fill="#991B1E"/>
<ellipse cx="19" cy="18.3029" rx="13.7222" ry="13.5963" fill="#F5F5F5"/>
</g>
<defs>
<clipPath id="clip0_4_638">
<rect width="38" height="57" fill="white"/>
</clipPath>
</defs>
</svg>
