<svg width="134" height="128" viewBox="0 0 134 128" fill="none" xmlns="http://www.w3.org/2000/svg">
<g clip-path="url(#clip0_1_525)">
<path d="M118.491 24.4831C91.4921 -2.58002 46.4933 -9.06819 10.0828 14.4569L16.5158 24.494C19.4399 22.1534 22.4832 20.0524 25.6239 18.18C25.3964 18.5501 25.1798 18.9202 24.9957 19.323C22.0391 25.4084 24.5409 32.7457 30.584 35.7285C31.7537 36.3055 32.9666 36.6648 34.1796 36.8498C31.7428 38.0473 29.3494 39.3972 27.0318 40.8886L27.7574 42.0208C51.1611 29.7085 78.1928 32.4953 97.4378 46.2773L103.394 40.1157C101.477 38.9291 99.5063 37.8514 97.5028 36.8716C101.402 36.3382 104.965 33.9323 106.827 30.1113C109.156 25.3322 108.095 19.7803 104.607 16.1769C109.275 18.6481 113.759 21.5874 117.972 25.0383L118.502 24.494L118.491 24.4831ZM45.3995 32.4409C45.9735 31.7333 46.4825 30.9495 46.9049 30.1004C49.8615 24.015 47.3597 16.6777 41.3166 13.6949C39.952 13.0308 38.5333 12.6498 37.1145 12.5083C45.1612 9.30772 53.6195 7.46795 62.1427 6.9563C59.1103 7.94695 56.4786 10.1133 54.9624 13.2159C52.0058 19.3013 54.5076 26.6386 60.5507 29.6214C60.5832 29.6432 60.6265 29.654 60.659 29.6649C55.5039 30.0351 50.3921 30.9604 45.3995 32.4409ZM84.9183 19.3121C82.7415 23.7755 83.5212 28.9138 86.4886 32.5171C81.4743 31.0148 76.3192 30.0677 71.1317 29.6867C73.5468 28.5436 75.5936 26.6059 76.8607 24.0041C79.8173 17.9187 77.3156 10.5814 71.2724 7.59859C70.6335 7.28289 69.9837 7.04339 69.323 6.84744C78.6044 7.11959 87.8532 8.98114 96.6147 12.4538C91.8495 12.1599 87.1493 14.7182 84.9183 19.3013V19.3121Z" fill="white"/>
<path d="M9.54127 106.642H14.6097C14.8263 106.642 14.9563 106.674 15.0104 106.74C15.0646 106.805 15.0971 106.914 15.0971 107.055V114.665C15.0971 114.806 15.0754 114.904 15.0429 114.959C14.9671 115.046 14.8263 115.089 14.6097 115.089H13.5267C13.3101 115.089 13.1802 115.057 13.126 114.991C13.0719 114.926 13.0394 114.817 13.0394 114.676V108.383C13.0394 108.253 12.9636 108.187 12.8119 108.187H11.3066C11.1658 108.187 11.1008 108.253 11.1008 108.373V114.676C11.1008 114.861 11.0575 114.98 10.9817 115.024C10.9059 115.068 10.7759 115.1 10.6134 115.1H9.53044C9.36799 115.1 9.25969 115.089 9.19471 115.057C9.09724 114.991 9.04309 114.872 9.04309 114.687V107.077C9.04309 106.936 9.06475 106.838 9.09724 106.783C9.17305 106.696 9.31384 106.652 9.53044 106.652L9.54127 106.642Z" fill="white"/>
<path d="M17.2415 112.019V109.722C17.2415 108.917 17.3606 108.285 17.5988 107.839C18.0645 106.979 18.9418 106.543 20.2522 106.543C21.476 106.543 22.3316 106.924 22.8081 107.708C23.1113 108.198 23.263 108.873 23.263 109.722V112.019C23.263 112.814 23.1438 113.445 22.9056 113.892C22.4399 114.763 21.5626 115.198 20.2522 115.198C19.2234 115.198 18.4652 114.937 17.9779 114.414C17.4905 113.892 17.2415 113.097 17.2415 112.019ZM21.2269 111.812V109.929C21.2269 109.298 21.1836 108.873 21.1078 108.644C20.9778 108.285 20.6962 108.111 20.263 108.111C19.8298 108.111 19.5483 108.285 19.4183 108.634C19.3317 108.862 19.2883 109.287 19.2883 109.929V111.812C19.2883 112.444 19.3317 112.868 19.4183 113.097C19.5483 113.456 19.8298 113.63 20.263 113.63C20.6962 113.63 20.9778 113.456 21.1078 113.108C21.1944 112.879 21.2269 112.455 21.2269 111.812Z" fill="white"/>
<path d="M27.205 106.641H31.3096C31.5262 106.641 31.6562 106.674 31.7103 106.739C31.7645 106.805 31.797 106.914 31.797 107.055V113.347C31.797 113.424 31.797 113.478 31.8186 113.489C31.8403 113.5 31.8836 113.511 31.9594 113.511H32.2627C32.4251 113.511 32.5442 113.521 32.5984 113.554C32.6959 113.619 32.75 113.739 32.75 113.924V116.199C32.75 116.385 32.7067 116.504 32.6309 116.548C32.5551 116.591 32.4251 116.624 32.2627 116.624H31.2555C31.0389 116.624 30.9089 116.591 30.8548 116.526C30.8006 116.461 30.7681 116.352 30.7681 116.21V115.263C30.7681 115.144 30.6923 115.078 30.5515 115.078H27.1834C27.0209 115.078 26.9343 115.154 26.9343 115.307V116.21C26.9343 116.395 26.891 116.515 26.8152 116.559C26.7393 116.602 26.6202 116.635 26.4469 116.635H25.4397C25.2231 116.635 25.0932 116.602 25.039 116.537C24.9849 116.472 24.9524 116.363 24.9524 116.221V113.946C24.9524 113.761 24.9957 113.641 25.0715 113.598C25.1473 113.554 25.2773 113.521 25.4397 113.521H25.5589C25.6997 113.521 25.8188 113.391 25.9163 113.13C25.9596 113.021 26.0137 112.814 26.0787 112.509C26.2953 111.638 26.4469 110.756 26.5444 109.864C26.6202 109.2 26.6527 108.546 26.6527 107.926L26.696 106.968C26.696 106.794 26.7285 106.696 26.8043 106.663C26.8801 106.631 26.9993 106.62 27.1725 106.62L27.205 106.641ZM29.7501 113.358V108.361C29.7501 108.263 29.6959 108.22 29.5876 108.22H28.8945C28.7754 108.22 28.7104 108.263 28.7104 108.361L28.6454 109.113C28.6454 110.354 28.5588 111.214 28.3963 111.682C28.2014 112.237 28.0498 112.792 27.9415 113.347V113.445C27.9631 113.5 28.0281 113.532 28.1364 113.532H29.566C29.6959 113.532 29.7609 113.478 29.7609 113.358H29.7501Z" fill="white"/>
<path d="M34.5478 114.675V107.066C34.5478 106.924 34.5695 106.826 34.6019 106.772C34.6778 106.685 34.8185 106.641 35.0351 106.641H36.1181C36.3347 106.641 36.4647 106.674 36.5189 106.739C36.573 106.805 36.6055 106.914 36.6055 107.055V113.336C36.6055 113.336 36.6272 113.413 36.6596 113.456C36.6921 113.5 36.7463 113.521 36.8113 113.521H38.2408C38.3925 113.521 38.4574 113.456 38.4574 113.326V107.055C38.4574 106.914 38.4791 106.816 38.5116 106.761C38.5874 106.674 38.7282 106.631 38.9448 106.631H40.0278C40.2444 106.631 40.3744 106.663 40.4285 106.728C40.4827 106.794 40.5151 106.903 40.5151 107.044V113.326C40.5151 113.326 40.5368 113.402 40.5693 113.445C40.6018 113.489 40.6559 113.511 40.7209 113.511H42.1505C42.3021 113.511 42.3671 113.445 42.3671 113.315V107.044C42.3671 106.903 42.3887 106.805 42.4212 106.75C42.497 106.663 42.6378 106.62 42.8544 106.62H43.9374C44.154 106.62 44.284 106.652 44.3381 106.718C44.3923 106.783 44.4248 106.892 44.4248 107.022V114.643C44.4248 114.828 44.3815 114.948 44.3057 114.991C44.2298 115.035 44.1107 115.067 43.9374 115.067H35.0568C34.8944 115.067 34.7861 115.056 34.7211 115.024C34.6236 114.958 34.5695 114.839 34.5695 114.654L34.5478 114.675Z" fill="white"/>
<path d="M48.1504 115.1H47.0998C46.9374 115.1 46.8291 115.089 46.7641 115.057C46.6666 114.991 46.6125 114.872 46.6125 114.687V107.077C46.6125 106.936 46.6341 106.838 46.6666 106.783C46.7424 106.696 46.8832 106.652 47.0998 106.652H48.1828C48.3994 106.652 48.5294 106.685 48.5836 106.75C48.6377 106.816 48.6702 106.925 48.6702 107.066V111.018L50.5221 107.066C50.6088 106.892 50.6846 106.772 50.7496 106.718C50.8145 106.663 50.9228 106.642 51.0636 106.642H52.19C52.4066 106.642 52.5365 106.674 52.5907 106.74C52.6448 106.805 52.6773 106.914 52.6773 107.055V114.665C52.6773 114.806 52.6556 114.904 52.6232 114.959C52.5473 115.046 52.4066 115.089 52.19 115.089H51.1069C50.8903 115.089 50.7604 115.057 50.7062 114.991C50.6521 114.926 50.6196 114.817 50.6196 114.676V110.528L48.7893 114.676C48.7135 114.85 48.6269 114.97 48.5294 115.024C48.4319 115.078 48.302 115.1 48.1504 115.1Z" fill="white"/>
<path d="M55.3631 106.642H60.4316C60.6482 106.642 60.7781 106.674 60.8323 106.74C60.8864 106.805 60.9189 106.914 60.9189 107.055V114.665C60.9189 114.806 60.8973 114.904 60.8648 114.959C60.789 115.046 60.6482 115.089 60.4316 115.089H59.3486C59.132 115.089 59.002 115.057 58.9479 114.991C58.8937 114.926 58.8612 114.817 58.8612 114.676V108.383C58.8612 108.253 58.7854 108.187 58.6338 108.187H57.1284C56.9876 108.187 56.9226 108.253 56.9226 108.373V114.676C56.9226 114.861 56.8793 114.98 56.8035 115.024C56.7277 115.068 56.5977 115.1 56.4353 115.1H55.3523C55.1898 115.1 55.0815 115.089 55.0165 115.057C54.9191 114.991 54.8649 114.872 54.8649 114.687V107.077C54.8649 106.936 54.8866 106.838 54.9191 106.783C54.9949 106.696 55.1357 106.652 55.3523 106.652L55.3631 106.642Z" fill="white"/>
<path d="M63.6156 106.642H64.6987C64.9153 106.642 65.0452 106.674 65.0994 106.74C65.1535 106.805 65.186 106.914 65.186 107.055V109.385C65.186 109.461 65.1968 109.516 65.2185 109.559C65.2402 109.603 65.2943 109.624 65.3918 109.624H66.8971C66.8971 109.624 66.973 109.624 66.9946 109.614C67.0813 109.57 67.1246 109.494 67.1246 109.374V107.066C67.1246 106.925 67.1462 106.827 67.1787 106.772C67.2545 106.685 67.3953 106.642 67.6119 106.642H68.6949C68.9115 106.642 69.0415 106.674 69.0956 106.74C69.1498 106.805 69.1823 106.914 69.1823 107.055V114.665C69.1823 114.806 69.1606 114.904 69.1281 114.959C69.0523 115.046 68.9115 115.089 68.6949 115.089H67.6119C67.3953 115.089 67.2654 115.057 67.2112 114.991C67.1571 114.926 67.1246 114.817 67.1246 114.676V111.508C67.1246 111.377 67.0488 111.312 66.8971 111.312H65.3918C65.251 111.312 65.186 111.377 65.186 111.497V114.676C65.186 114.861 65.1427 114.98 65.0669 115.024C64.9911 115.068 64.8611 115.1 64.6987 115.1H63.6156C63.4532 115.1 63.3449 115.089 63.2799 115.057C63.1824 114.991 63.1283 114.872 63.1283 114.687V107.077C63.1283 106.936 63.15 106.838 63.1824 106.783C63.2583 106.696 63.399 106.652 63.6156 106.652V106.642Z" fill="white"/>
<path d="M72.9078 115.1H71.8573C71.6948 115.1 71.5865 115.089 71.5216 115.057C71.4241 114.991 71.3699 114.872 71.3699 114.687V107.077C71.3699 106.936 71.3916 106.838 71.4241 106.783C71.4999 106.696 71.6407 106.652 71.8573 106.652H72.9403C73.1569 106.652 73.2868 106.685 73.341 106.75C73.3951 106.816 73.4276 106.925 73.4276 107.066V111.018L75.2796 107.066C75.3662 106.892 75.442 106.772 75.507 106.718C75.572 106.663 75.6803 106.642 75.8211 106.642H76.9474C77.164 106.642 77.294 106.674 77.3481 106.74C77.4023 106.805 77.4348 106.914 77.4348 107.055V114.665C77.4348 114.806 77.4131 114.904 77.3806 114.959C77.3048 115.046 77.164 115.089 76.9474 115.089H75.8644C75.6478 115.089 75.5178 115.057 75.4637 114.991C75.4095 114.926 75.377 114.817 75.377 114.676V110.528L73.5468 114.676C73.471 114.85 73.3843 114.97 73.2868 115.024C73.1894 115.078 73.0594 115.1 72.9078 115.1Z" fill="white"/>
<path d="M79.6333 114.675V107.066C79.6333 106.924 79.6549 106.826 79.6874 106.772C79.7632 106.685 79.904 106.641 80.1206 106.641H81.2036C81.4202 106.641 81.5502 106.674 81.6043 106.739C81.6585 106.805 81.691 106.913 81.691 107.055V109.657C81.691 109.766 81.756 109.831 81.8859 109.831H82.5466C82.7632 109.831 82.9256 109.776 83.0447 109.657C83.1964 109.515 83.283 109.276 83.283 108.949V108.056C83.283 107.599 83.413 107.251 83.6945 107.001C83.9653 106.761 84.3227 106.63 84.7559 106.63H85.6873C85.8064 106.63 85.9147 106.663 85.9905 106.717C86.0771 106.783 86.1205 106.87 86.1205 106.979V107.741C86.1205 107.861 86.088 107.937 86.0122 107.98C85.9472 108.024 85.8714 108.046 85.8064 108.046H85.5248C85.4057 108.046 85.3299 108.089 85.2865 108.187C85.2432 108.274 85.2216 108.383 85.2216 108.492V109.483C85.2216 109.744 85.1566 109.962 85.0266 110.114C84.8533 110.245 84.6801 110.364 84.5176 110.484V110.528C84.8642 110.669 85.1458 110.854 85.3624 111.083C85.579 111.311 85.6764 111.638 85.6764 112.084V114.654C85.6764 114.795 85.6548 114.893 85.6223 114.947C85.5465 115.035 85.4057 115.078 85.1891 115.078H84.1061C83.8895 115.078 83.7595 115.045 83.7054 114.98C83.6512 114.915 83.6187 114.806 83.6187 114.664V112.661C83.6187 112.269 83.5321 111.975 83.3588 111.769C83.1855 111.562 82.9039 111.464 82.5249 111.464H81.8426C81.7343 111.464 81.6801 111.529 81.6801 111.66V114.664C81.6801 114.849 81.6368 114.969 81.561 115.013C81.4852 115.056 81.3552 115.089 81.1928 115.089H80.1098C79.9473 115.089 79.839 115.078 79.7741 115.045C79.6766 114.98 79.6224 114.86 79.6224 114.675H79.6333Z" fill="white"/>
<path d="M87.8965 112.019V109.722C87.8965 108.917 88.0157 108.285 88.2539 107.839C88.7196 106.979 89.5969 106.543 90.9073 106.543C92.1311 106.543 92.9867 106.924 93.4632 107.708C93.7664 108.198 93.918 108.873 93.918 109.722V112.019C93.918 112.814 93.7989 113.445 93.5606 113.892C93.095 114.763 92.2177 115.198 90.9073 115.198C89.8784 115.198 89.1203 114.937 88.633 114.414C88.1456 113.892 87.8965 113.097 87.8965 112.019ZM91.882 111.812V109.929C91.882 109.298 91.8387 108.873 91.7629 108.644C91.6329 108.285 91.3513 108.111 90.9181 108.111C90.4849 108.111 90.2033 108.285 90.0734 108.634C89.9867 108.862 89.9434 109.287 89.9434 109.929V111.812C89.9434 112.444 89.9867 112.868 90.0734 113.097C90.2033 113.456 90.4849 113.63 90.9181 113.63C91.3513 113.63 91.6329 113.456 91.7629 113.108C91.8495 112.879 91.882 112.455 91.882 111.812Z" fill="white"/>
<path d="M96.0732 114.687V106.979C96.0732 106.838 96.1057 106.75 96.1707 106.707C96.2357 106.663 96.344 106.642 96.4848 106.642H99.1598C100.221 106.642 101.023 106.859 101.553 107.284C102.019 107.665 102.257 108.166 102.257 108.786C102.257 109.178 102.149 109.516 101.921 109.809C101.694 110.103 101.369 110.332 100.936 110.484V110.528C101.467 110.68 101.878 110.942 102.171 111.323C102.463 111.704 102.625 112.15 102.625 112.662C102.625 113.369 102.398 113.935 101.932 114.349C101.391 114.839 100.557 115.089 99.4414 115.089H96.4848C96.2032 115.089 96.0732 114.948 96.0732 114.676V114.687ZM98.8241 109.831C99.2573 109.831 99.5822 109.755 99.7879 109.603C100.005 109.45 100.102 109.254 100.102 109.026C100.102 108.797 100.015 108.623 99.8529 108.481C99.6255 108.307 99.2789 108.22 98.8024 108.22H98.3584C98.1959 108.22 98.1093 108.275 98.1093 108.383V109.69C98.1093 109.788 98.1959 109.831 98.3692 109.831H98.8132H98.8241ZM98.2934 113.533H98.9324C99.4197 113.533 99.7879 113.435 100.037 113.239C100.286 113.043 100.405 112.792 100.405 112.487C100.405 112.183 100.297 111.943 100.07 111.747C99.7988 111.519 99.4197 111.41 98.9215 111.41H98.3259C98.2284 111.41 98.1634 111.432 98.1418 111.475C98.1201 111.519 98.1093 111.562 98.1093 111.617V113.391C98.1093 113.489 98.1634 113.533 98.2934 113.533Z" fill="white"/>
<path d="M106.936 106.641H108.679C108.799 106.641 108.896 106.663 108.961 106.707C109.026 106.75 109.091 106.837 109.134 106.99L111.376 114.741C111.376 114.741 111.409 114.839 111.409 114.893C111.409 115.035 111.311 115.1 111.105 115.1H109.752C109.611 115.1 109.513 115.067 109.448 115.002C109.394 114.937 109.34 114.86 109.318 114.762L109.037 113.848C109.004 113.728 108.907 113.663 108.766 113.663H106.871C106.719 113.663 106.622 113.728 106.589 113.848L106.329 114.806C106.308 114.882 106.275 114.958 106.21 115.013C106.145 115.078 106.059 115.1 105.929 115.1H104.586C104.412 115.1 104.326 115.024 104.326 114.871V114.795C104.326 114.795 104.358 114.741 104.358 114.73L106.492 106.979C106.524 106.837 106.578 106.739 106.654 106.696C106.719 106.652 106.827 106.63 106.957 106.63L106.936 106.641ZM107.239 112.041H108.387C108.484 112.041 108.517 111.976 108.484 111.856L107.878 109.722C107.878 109.722 107.856 109.668 107.835 109.646C107.813 109.624 107.791 109.613 107.791 109.602C107.737 109.646 107.705 109.689 107.694 109.722L107.152 111.856C107.12 111.976 107.152 112.041 107.25 112.041H107.239Z" fill="white"/>
<path d="M116.553 106.642H119.109C119.325 106.642 119.455 106.674 119.509 106.74C119.564 106.805 119.596 106.914 119.596 107.055V114.665C119.596 114.85 119.553 114.97 119.477 115.013C119.401 115.057 119.282 115.089 119.109 115.089H118.026C117.809 115.089 117.679 115.057 117.625 114.991C117.571 114.926 117.538 114.817 117.538 114.676V111.682C117.538 111.584 117.484 111.54 117.387 111.54H117.127C116.997 111.54 116.899 111.595 116.834 111.715L115.188 114.85C115.145 114.948 115.091 115.013 115.026 115.046C114.961 115.078 114.842 115.1 114.658 115.1H113.217C112.99 115.1 112.881 115.013 112.881 114.828C112.881 114.784 112.892 114.741 112.925 114.676L114.712 111.41C114.755 111.334 114.777 111.268 114.777 111.214C114.777 111.159 114.723 111.116 114.614 111.072C114.419 110.996 114.289 110.931 114.224 110.887C113.835 110.626 113.553 110.321 113.38 109.962C113.239 109.668 113.174 109.363 113.174 109.015C113.174 108.394 113.412 107.872 113.889 107.447C114.484 106.914 115.372 106.652 116.531 106.652L116.553 106.642ZM117.549 109.82V108.394C117.549 108.253 117.473 108.187 117.311 108.187H116.704C116.26 108.187 115.925 108.285 115.708 108.492C115.524 108.666 115.427 108.873 115.427 109.124C115.427 109.407 115.546 109.635 115.773 109.799C116.001 109.962 116.315 110.049 116.704 110.049H117.333C117.484 110.049 117.549 109.973 117.549 109.82Z" fill="white"/>
<path d="M31.3638 127.478V119.868C31.3638 119.727 31.3855 119.629 31.4179 119.574C31.4938 119.487 31.6345 119.444 31.8511 119.444H32.9342C33.1508 119.444 33.2807 119.476 33.3349 119.541C33.389 119.607 33.4215 119.716 33.4215 119.857V122.459C33.4215 122.568 33.4865 122.633 33.6164 122.633H34.2771C34.4937 122.633 34.6561 122.579 34.7753 122.459C34.9269 122.317 35.0135 122.078 35.0135 121.751V120.859C35.0135 120.401 35.1435 120.053 35.4251 119.803C35.6958 119.563 36.0532 119.433 36.4864 119.433H37.4178C37.5369 119.433 37.6452 119.465 37.721 119.52C37.8077 119.585 37.851 119.661 37.851 119.781V120.543C37.851 120.663 37.8185 120.75 37.7427 120.783C37.6777 120.826 37.6019 120.837 37.5369 120.837H37.2553C37.1362 120.837 37.0604 120.88 37.0171 120.978C36.9738 121.066 36.9521 121.174 36.9521 121.283V122.274C36.9521 122.535 36.8871 122.753 36.7572 122.905C36.5839 123.036 36.4106 123.156 36.2481 123.275V123.319C36.5947 123.461 36.8763 123.646 37.0929 123.874C37.3095 124.103 37.407 124.429 37.407 124.876V127.445C37.407 127.586 37.3853 127.684 37.3528 127.739C37.277 127.826 37.1362 127.869 36.9196 127.869H35.8366C35.62 127.869 35.49 127.837 35.4359 127.771C35.3817 127.706 35.3492 127.597 35.3492 127.456V125.453C35.3492 125.061 35.2626 124.767 35.0893 124.56C34.916 124.353 34.6345 124.255 34.2554 124.255H33.5731C33.4648 124.255 33.4107 124.321 33.4107 124.451V127.456C33.4107 127.641 33.3674 127.761 33.2915 127.804C33.2157 127.848 33.0858 127.88 32.9233 127.88H31.8403C31.6779 127.88 31.5696 127.869 31.5046 127.837C31.4071 127.771 31.353 127.652 31.353 127.467L31.3638 127.478Z" fill="white"/>
<path d="M39.6271 124.821V122.524C39.6271 121.719 39.7462 121.087 39.9845 120.641C40.4502 119.781 41.3274 119.346 42.6378 119.346C43.8616 119.346 44.7172 119.738 45.1937 120.511C45.497 121 45.6486 121.675 45.6486 122.524V124.821C45.6486 125.616 45.5294 126.248 45.2912 126.694C44.8255 127.565 43.9483 128 42.6378 128C41.609 128 40.8509 127.739 40.3635 127.216C39.8762 126.694 39.6271 125.899 39.6271 124.821ZM43.6125 124.615V122.731C43.6125 122.1 43.5692 121.675 43.4934 121.447C43.3634 121.087 43.0819 120.913 42.6487 120.913C42.2155 120.913 41.9339 121.088 41.8039 121.436C41.7173 121.664 41.674 122.089 41.674 122.731V124.615C41.674 125.246 41.7173 125.671 41.8039 125.899C41.9339 126.258 42.2155 126.433 42.6487 126.433C43.0819 126.433 43.3634 126.258 43.4934 125.91C43.58 125.681 43.6125 125.257 43.6125 124.615Z" fill="white"/>
<path d="M49.8615 123.047V127.478C49.8615 127.663 49.8182 127.783 49.7423 127.826C49.6665 127.87 49.5366 127.902 49.3741 127.902H48.2911C48.1287 127.902 48.0204 127.891 47.9554 127.859C47.8579 127.793 47.8038 127.674 47.8038 127.489V119.879C47.8038 119.738 47.8254 119.64 47.8579 119.585C47.9337 119.498 48.0745 119.455 48.2911 119.455H49.5257C49.6665 119.455 49.7857 119.498 49.8831 119.574C49.9373 119.618 49.9806 119.672 50.0239 119.749L51.5185 122.361C51.5185 122.361 51.5618 122.448 51.5943 122.492C51.6268 122.535 51.6593 122.568 51.6809 122.568C51.7134 122.568 51.7567 122.535 51.7892 122.481C51.8217 122.427 51.8325 122.383 51.8325 122.383L53.3271 119.803C53.4029 119.683 53.4787 119.596 53.5653 119.553C53.652 119.509 53.7495 119.476 53.8578 119.476H55.0166C55.2332 119.476 55.3631 119.509 55.4173 119.574C55.4714 119.64 55.5039 119.749 55.5039 119.89V127.499C55.5039 127.685 55.4606 127.804 55.3848 127.848C55.309 127.891 55.179 127.924 55.0166 127.924H53.9336C53.717 127.924 53.587 127.891 53.5329 127.826C53.4787 127.761 53.4462 127.652 53.4462 127.51V123.21C53.4462 123.21 53.4137 123.134 53.3921 123.134L53.3487 123.156L52.2657 125.431C52.2116 125.562 52.1574 125.649 52.1033 125.681C52.0491 125.725 51.9733 125.747 51.8975 125.747H51.4318C51.2802 125.747 51.1503 125.638 51.0636 125.431L49.959 123.069C49.959 123.069 49.894 123.08 49.8615 123.08V123.047Z" fill="white"/>
<path d="M58.2006 119.444H63.2691C63.4857 119.444 63.6157 119.477 63.6698 119.542C63.724 119.607 63.7564 119.716 63.7564 119.858V127.467C63.7564 127.608 63.7348 127.706 63.7023 127.761C63.6265 127.848 63.4857 127.892 63.2691 127.892H62.1861C61.9695 127.892 61.8395 127.859 61.7854 127.794C61.7312 127.728 61.6987 127.619 61.6987 127.478V121.186C61.6987 121.055 61.6229 120.99 61.4713 120.99H59.9659C59.8251 120.99 59.7602 121.055 59.7602 121.175V127.478C59.7602 127.663 59.7168 127.783 59.641 127.826C59.5652 127.87 59.4353 127.902 59.2728 127.902H58.1898C58.0274 127.902 57.9191 127.892 57.8541 127.859C57.7566 127.794 57.7025 127.674 57.7025 127.489V119.879C57.7025 119.738 57.7241 119.64 57.7566 119.585C57.8324 119.498 57.9732 119.455 58.1898 119.455L58.2006 119.444Z" fill="white"/>
<path d="M68.1209 119.444H69.8645C69.9837 119.444 70.0811 119.465 70.1461 119.509C70.2111 119.552 70.2761 119.639 70.3194 119.781L72.5612 127.532C72.5612 127.532 72.5937 127.63 72.5937 127.684C72.5937 127.826 72.4962 127.891 72.2905 127.891H70.9367C70.7959 127.891 70.6984 127.859 70.6335 127.793C70.5793 127.728 70.5252 127.652 70.5035 127.554L70.2219 126.639C70.1894 126.52 70.092 126.454 69.9512 126.454H68.0559C67.9043 126.454 67.8068 126.52 67.7743 126.639L67.5144 127.597C67.4928 127.673 67.4603 127.75 67.3953 127.804C67.3303 127.869 67.2437 127.891 67.1137 127.891H65.7708C65.5975 127.891 65.5109 127.815 65.5109 127.663V127.586C65.5109 127.586 65.5434 127.532 65.5434 127.521L67.6769 119.77C67.7094 119.629 67.7635 119.531 67.8393 119.498C67.9043 119.454 68.0126 119.433 68.1426 119.433L68.1209 119.444ZM68.4241 124.843H69.5721C69.6696 124.843 69.7021 124.778 69.6696 124.658L69.0631 122.524C69.0631 122.524 69.0415 122.47 69.0198 122.448C68.9981 122.426 68.9765 122.415 68.9765 122.405C68.9223 122.448 68.8898 122.492 68.879 122.524L68.3375 124.658C68.305 124.778 68.3375 124.843 68.435 124.843H68.4241Z" fill="white"/>
<path d="M74.8356 119.444H75.9186C76.1352 119.444 76.2651 119.477 76.3193 119.542C76.3734 119.607 76.4059 119.716 76.4059 119.858V122.187C76.4059 122.263 76.4167 122.318 76.4384 122.361C76.4601 122.405 76.5142 122.427 76.6117 122.427H78.1171C78.1171 122.427 78.1929 122.427 78.2145 122.416C78.3012 122.372 78.3445 122.296 78.3445 122.176V119.868C78.3445 119.727 78.3661 119.629 78.3986 119.574C78.4744 119.487 78.6152 119.444 78.8318 119.444H79.9148C80.1314 119.444 80.2614 119.477 80.3156 119.542C80.3697 119.607 80.4022 119.716 80.4022 119.858V127.467C80.4022 127.608 80.3805 127.706 80.348 127.761C80.2722 127.848 80.1314 127.892 79.9148 127.892H78.8318C78.6152 127.892 78.4853 127.859 78.4311 127.794C78.377 127.728 78.3445 127.619 78.3445 127.478V124.31C78.3445 124.179 78.2687 124.114 78.1171 124.114H76.6117C76.4709 124.114 76.4059 124.179 76.4059 124.299V127.478C76.4059 127.663 76.3626 127.783 76.2868 127.826C76.211 127.87 76.081 127.902 75.9186 127.902H74.8356C74.6731 127.902 74.5648 127.892 74.4998 127.859C74.4024 127.794 74.3482 127.674 74.3482 127.489V119.879C74.3482 119.738 74.3699 119.64 74.4024 119.585C74.4782 119.498 74.619 119.455 74.8356 119.455V119.444Z" fill="white"/>
<path d="M84.1385 127.902H83.088C82.9256 127.902 82.8173 127.892 82.7523 127.859C82.6548 127.794 82.6006 127.674 82.6006 127.489V119.879C82.6006 119.738 82.6223 119.64 82.6548 119.585C82.7306 119.498 82.8714 119.455 83.088 119.455H84.171C84.3876 119.455 84.5176 119.487 84.5717 119.553C84.6259 119.618 84.6584 119.727 84.6584 119.868V123.82L86.5103 119.868C86.5969 119.694 86.6727 119.574 86.7377 119.52C86.8027 119.466 86.911 119.444 87.0518 119.444H88.1781C88.3947 119.444 88.5247 119.477 88.5788 119.542C88.633 119.607 88.6655 119.716 88.6655 119.858V127.467C88.6655 127.608 88.6438 127.706 88.6113 127.761C88.5355 127.848 88.3947 127.892 88.1781 127.892H87.0951C86.8785 127.892 86.7486 127.859 86.6944 127.794C86.6403 127.728 86.6078 127.619 86.6078 127.478V123.33L84.7775 127.478C84.7017 127.652 84.615 127.772 84.5176 127.826C84.4201 127.881 84.2901 127.902 84.1385 127.902Z" fill="white"/>
<path d="M94.2538 119.444H96.8097C97.0263 119.444 97.1562 119.477 97.2104 119.542C97.2645 119.607 97.297 119.716 97.297 119.858V127.467C97.297 127.652 97.2537 127.772 97.1779 127.815C97.1021 127.859 96.9829 127.892 96.8097 127.892H95.7267C95.5101 127.892 95.3801 127.859 95.3259 127.794C95.2718 127.728 95.2393 127.619 95.2393 127.478V124.484C95.2393 124.386 95.1852 124.343 95.0877 124.343H94.8278C94.6978 124.343 94.6003 124.397 94.5354 124.517L92.8892 127.652C92.8459 127.75 92.7917 127.815 92.7267 127.848C92.6618 127.881 92.5426 127.902 92.3585 127.902H90.9181C90.6907 127.902 90.5824 127.815 90.5824 127.63C90.5824 127.587 90.5932 127.543 90.6257 127.478L92.4127 124.212C92.456 124.136 92.4777 124.07 92.4777 124.016C92.4777 123.962 92.4235 123.918 92.3152 123.875C92.1203 123.798 91.9903 123.733 91.9253 123.689C91.5354 123.428 91.2539 123.123 91.0806 122.764C90.9398 122.47 90.8748 122.165 90.8748 121.817C90.8748 121.197 91.1131 120.674 91.5896 120.249C92.1852 119.716 93.0733 119.455 94.2321 119.455L94.2538 119.444ZM95.2501 122.623V121.197C95.2501 121.055 95.1743 120.99 95.0119 120.99H94.4054C93.9614 120.99 93.6256 121.088 93.409 121.294C93.2249 121.469 93.1275 121.676 93.1275 121.926C93.1275 122.209 93.2466 122.438 93.474 122.601C93.7014 122.764 94.0155 122.851 94.4054 122.851H95.0335C95.1852 122.851 95.2501 122.775 95.2501 122.623Z" fill="white"/>
<path d="M0 93.1641V87.5251L4.10458 86.6433V59.6782L0 58.7964V53.1355H17.4797V58.7964L13.7 59.6782V68.4415H16.7866L23.3279 59.0141C24.9849 56.6736 26.5661 55.0297 28.0714 54.0935C29.5768 53.1573 31.223 52.6892 33.0099 52.6892C34.1254 52.6892 35.1543 52.8307 36.1182 53.1138C37.0712 53.3968 37.8943 53.7561 38.5657 54.2024L36.8979 61.5941C36.573 61.4853 36.2698 61.3982 35.999 61.3437C35.7283 61.2893 35.4467 61.2567 35.1543 61.2567C34.4287 61.2567 33.6273 61.4961 32.7608 61.9751C31.8944 62.4541 30.8981 63.4121 29.7609 64.86L24.9741 71.3155L34.602 86.8175L39.0639 87.5033V93.1423H21.6059V87.5033L23.4145 87.1985L23.382 87.1441L18.0753 77.4118H13.7V86.6215L17.4797 87.5033V93.1423H0V93.1641Z" fill="white"/>
<path d="M45.0096 93.1641V87.525L49.1142 86.6432V59.6781L45.0096 58.7963V53.1355H86.7161V58.7963L82.6115 59.6781V86.6432L86.7161 87.525V93.1641H68.9115V87.525L73.0161 86.6432V60.4946H58.7096V86.6432L62.8359 87.525V93.1641H45.0096Z" fill="white"/>
<path d="M93.5823 102.973L93.0841 85.816H95.9324C96.8963 85.152 97.7627 84.2049 98.5316 82.953C99.3006 81.701 99.9287 80.0137 100.427 77.8691C100.925 75.7245 101.25 72.9703 101.402 69.6174L102.192 59.5803L98.4991 58.7856V53.1248H133.859V58.7856L129.755 59.6674V85.8051H133.989L133.112 103.016H124.383V93.1424H102.615V102.951H93.5606L93.5823 102.973ZM106.903 85.816H120.17V60.4947H111.69L111.029 69.6174C110.921 72.1865 110.683 74.4508 110.336 76.4212C109.979 78.3916 109.513 80.1334 108.939 81.6575C108.365 83.1816 107.683 84.5641 106.903 85.8051V85.816Z" fill="white"/>
</g>
<defs>
<clipPath id="clip0_1_525">
<rect width="134" height="128" fill="white"/>
</clipPath>
</defs>
</svg>
