<svg width="7" height="11" viewBox="0 0 7 11" fill="none" xmlns="http://www.w3.org/2000/svg">
<path d="M5.36 11C5.22529 10.9995 5.09208 10.9718 4.96836 10.9185C4.84463 10.8652 4.73294 10.7875 4.64 10.69L0.779998 6.69C0.596771 6.50307 0.494141 6.25175 0.494141 5.99C0.494141 5.72825 0.596771 5.47693 0.779998 5.29L4.78 1.29C4.87324 1.19676 4.98393 1.1228 5.10575 1.07234C5.22757 1.02188 5.35814 0.995911 5.49 0.995911C5.62186 0.995911 5.75243 1.02188 5.87425 1.07234C5.99607 1.1228 6.10676 1.19676 6.2 1.29C6.29324 1.38324 6.3672 1.49393 6.41766 1.61575C6.46812 1.73758 6.49409 1.86814 6.49409 2C6.49409 2.13186 6.46812 2.26243 6.41766 2.38425C6.3672 2.50607 6.29324 2.61676 6.2 2.71L2.9 6L6.08 9.3C6.26625 9.48737 6.37079 9.74082 6.37079 10.005C6.37079 10.2692 6.26625 10.5226 6.08 10.71C5.98537 10.8039 5.87293 10.8779 5.74928 10.9277C5.62564 10.9775 5.49328 11.0021 5.36 11Z" fill="#991B1E"/>
</svg>
