<svg width="33" height="34" viewBox="0 0 33 34" fill="none" xmlns="http://www.w3.org/2000/svg">
<g id="iconamoon:search-light">
<path id="Vector" d="M28.8748 29.375L22.9032 23.4034M22.9032 23.4034C23.9246 22.3819 24.7349 21.1693 25.2877 19.8346C25.8405 18.5 26.1251 17.0696 26.1251 15.625C26.1251 14.1804 25.8405 12.75 25.2877 11.4154C24.7349 10.0808 23.9246 8.8681 22.9032 7.84663C21.8817 6.82516 20.669 6.01489 19.3344 5.46207C17.9998 4.90926 16.5694 4.62473 15.1248 4.62473C13.6802 4.62473 12.2498 4.90926 10.9152 5.46207C9.58055 6.01489 8.36789 6.82516 7.34642 7.84663C5.28347 9.90959 4.12451 12.7076 4.12451 15.625C4.12451 18.5425 5.28347 21.3404 7.34642 23.4034C9.40937 25.4663 12.2073 26.6253 15.1248 26.6253C18.0423 26.6253 20.8402 25.4663 22.9032 23.4034Z" stroke="#0E262D" stroke-width="2" stroke-linecap="round" stroke-linejoin="round"/>
</g>
</svg>
