<svg width="33" height="34" viewBox="0 0 33 34" fill="none" xmlns="http://www.w3.org/2000/svg">
<path d="M28.875 29.375L22.9034 23.4034M22.9034 23.4034C23.9248 22.3819 24.7351 21.1693 25.2879 19.8346C25.8407 18.5 26.1253 17.0696 26.1253 15.625C26.1253 14.1804 25.8407 12.75 25.2879 11.4154C24.7351 10.0808 23.9248 8.8681 22.9034 7.84663C21.8819 6.82516 20.6692 6.01489 19.3346 5.46207C18 4.90926 16.5696 4.62473 15.125 4.62473C13.6804 4.62473 12.25 4.90926 10.9154 5.46207C9.58074 6.01489 8.36807 6.82516 7.3466 7.84663C5.28365 9.90959 4.12469 12.7076 4.12469 15.625C4.12469 18.5425 5.28365 21.3404 7.3466 23.4034C9.40956 25.4663 12.2075 26.6253 15.125 26.6253C18.0424 26.6253 20.8404 25.4663 22.9034 23.4034Z" stroke="#0E262D" stroke-width="2" stroke-linecap="round" stroke-linejoin="round"/>
</svg>
