<svg width="27" height="28" viewBox="0 0 27 28" fill="none" xmlns="http://www.w3.org/2000/svg">
<path d="M25.875 26.375L19.9034 20.4034M19.9034 20.4034C20.9248 19.3819 21.7351 18.1693 22.2879 16.8346C22.8407 15.5 23.1253 14.0696 23.1253 12.625C23.1253 11.1804 22.8407 9.75 22.2879 8.41538C21.7351 7.08077 20.9248 5.8681 19.9034 4.84663C18.8819 3.82516 17.6692 3.01489 16.3346 2.46207C15 1.90926 13.5696 1.62473 12.125 1.62473C10.6804 1.62473 9.24997 1.90926 7.91535 2.46207C6.58074 3.01489 5.36807 3.82516 4.3466 4.84663C2.28365 6.90959 1.12469 9.70755 1.12469 12.625C1.12469 15.5425 2.28365 18.3404 4.3466 20.4034C6.40956 22.4663 9.20752 23.6253 12.125 23.6253C15.0424 23.6253 17.8404 22.4663 19.9034 20.4034Z" stroke="#0E262D" stroke-width="2" stroke-linecap="round" stroke-linejoin="round"/>
</svg>
