<svg width="33" height="33" viewBox="0 0 33 33" fill="none" xmlns="http://www.w3.org/2000/svg">
<path d="M16.4918 2.75C13.7723 2.75 11.1138 3.55642 8.85266 5.06729C6.59148 6.57816 4.82911 8.72562 3.78841 11.2381C2.7477 13.7506 2.47541 16.5153 3.00595 19.1825C3.5365 21.8497 4.84606 24.2997 6.76903 26.2227C8.69201 28.1457 11.142 29.4553 13.8093 29.9858C16.4765 30.5163 19.2412 30.244 21.7536 29.2033C24.2661 28.1626 26.4136 26.4003 27.9245 24.1391C29.4353 21.8779 30.2418 19.2195 30.2418 16.5C30.2418 14.6943 29.8861 12.9063 29.1951 11.2381C28.5041 9.56988 27.4913 8.05409 26.2145 6.77728C24.9377 5.50048 23.4219 4.48766 21.7536 3.79666C20.0854 3.10565 18.2974 2.75 16.4918 2.75ZM20.8643 23.584C20.8129 23.7125 20.7347 23.8284 20.6349 23.9242C20.535 24.0199 20.4158 24.0931 20.2853 24.139C20.1548 24.1848 20.016 24.2022 19.8782 24.19C19.7404 24.1777 19.6069 24.1361 19.4865 24.068L15.7534 21.1667L13.3581 23.3778C13.3025 23.4188 13.2375 23.4452 13.169 23.4546C13.1006 23.464 13.0308 23.456 12.9663 23.4314L13.4255 19.3215L13.4393 19.3339L13.4489 19.2528C13.4489 19.2528 20.1658 13.1367 20.4394 12.8769C20.7171 12.617 20.625 12.5606 20.625 12.5606C20.6415 12.2444 20.1286 12.5606 20.1286 12.5606L11.2283 18.2861L7.52263 17.0239C7.52263 17.0239 6.95338 16.8204 6.89975 16.3708C6.84338 15.9253 7.5405 15.6833 7.5405 15.6833L22.2764 9.8285C22.2764 9.8285 23.4878 9.2895 23.4878 10.1833L20.8643 23.584Z" fill="#991B1E"/>
</svg>
